# 3ds Max Wavefront OBJ Exporter v0.97b - (c)2007 guruware
# File Created: 18.11.2017 18:30:19

mtllib drzewo2.mtl

#
# object Cylinder009
#

v  27.2137 0.0000 -0.0000
v  8.4095 0.0000 -25.8818
v  5.2248 17.8927 -16.0804
v  16.9079 17.8927 -0.0000
v  -22.0163 0.0000 -15.9958
v  -13.6788 17.8927 -9.9382
v  -22.0163 0.0000 15.9958
v  -13.6788 17.8927 9.9382
v  8.4095 0.0000 25.8818
v  5.2248 17.8927 16.0804
v  4.1427 24.1750 -12.7498
v  13.4059 24.1750 -0.0000
v  -10.8456 24.1750 -7.8798
v  -10.8456 24.1750 7.8798
v  4.1427 24.1750 12.7498
v  21.1386 21.3726 -0.0000
v  6.5322 21.3726 -20.1040
v  4.0585 37.2914 -12.4906
v  13.1334 37.2914 -0.0000
v  -17.1015 21.3726 -12.4249
v  -10.6252 37.2914 -7.7196
v  -17.1015 21.3726 12.4249
v  -10.6252 37.2914 7.7196
v  6.5322 21.3726 20.1040
v  4.0585 37.2914 12.4906
v  3.2179 42.8806 -9.9036
v  10.4132 42.8806 -0.0000
v  -8.4245 42.8806 -6.1207
v  -8.4245 42.8806 6.1207
v  3.2179 42.8806 9.9036
v  17.3906 39.7583 -0.0000
v  5.3740 38.9607 -16.5758
v  2.4695 51.9219 -10.2986
v  9.9354 52.4175 -0.0000
v  -14.0693 37.6700 -10.2444
v  -9.6106 51.1200 -6.3649
v  -14.0693 37.6700 10.2444
v  -9.6106 51.1200 6.3649
v  5.3740 38.9607 16.5758
v  2.4695 51.9219 10.2986
v  1.4727 56.4742 -8.1655
v  7.3923 56.8672 -0.0000
v  -8.1053 55.8384 -5.0466
v  -8.1053 55.8384 5.0466
v  1.4727 56.4742 8.1655
v  11.6770 55.9807 -0.0000
v  2.7657 55.3730 -12.2939
v  0.5942 64.9821 -7.6382
v  6.1308 65.3597 -0.0000
v  -11.6532 54.3897 -7.5980
v  -8.3643 64.3712 -4.7207
v  -11.6532 54.3897 7.5980
v  -8.3643 64.3712 4.7207
v  2.7657 55.3730 12.2939
v  0.5942 64.9821 7.6382
v  -0.1512 68.3571 -6.0562
v  4.2387 68.6565 -0.0000
v  -7.2542 67.8727 -3.7429
v  -7.2542 67.8727 3.7429
v  -0.1512 68.3571 6.0562
v  7.1268 67.7820 -0.0000
v  0.7135 66.5483 -8.9890
v  -1.7172 73.3289 -5.5849
v  2.2674 74.0955 -0.0000
v  -9.6635 64.5521 -5.5555
v  -8.1645 72.0887 -3.4517
v  -9.6635 64.5521 5.5555
v  -8.1645 72.0887 3.4517
v  0.7135 66.5483 8.9890
v  -1.7172 73.3289 5.5849
v  -2.5584 75.7120 -4.4282
v  0.6009 76.3198 -0.0000
v  -7.6703 74.7287 -2.7368
v  -7.6703 74.7287 2.7368
v  -2.5584 75.7120 4.4282
v  -5.8898 86.1676 -0.4387
v  -5.5768 86.2279 -0.0000
v  -6.3962 86.0702 -0.2711
v  -6.3962 86.0702 0.2711
v  -5.8898 86.1676 0.4387
v  4.7011 -16.8525 -10.5711
v  -3.6921 -16.8525 -10.8088
v  -2.6474 9.4157 -8.4339
v  1.3282 9.4157 -7.4549
v  -5.0116 -16.8525 -7.8881
v  -3.2462 9.4157 -6.6790
v  -7.2847 -16.8525 -2.8562
v  -6.2196 -16.8525 -0.9537
v  -3.6057 9.4157 -2.7655
v  -4.2776 9.4157 -3.6557
v  -4.3526 -16.8525 2.3812
v  4.0817 -16.8525 -1.8629
v  1.4780 9.4157 -2.9685
v  -2.4277 9.4157 -1.2049
v  -5.5050 -16.8525 0.3227
v  -3.1548 9.4157 -2.1682
# 96 vertices

vn 0.7480 0.6637 -0.0000
vn 0.2311 0.6637 -0.7114
vn -0.6051 0.6637 -0.4397
vn -0.6051 0.6637 0.4397
vn 0.2311 0.6637 0.7114
vn -0.0000 1.0000 0.0000
vn 0.0000 1.0000 0.0000
vn 0.0000 1.0000 -0.0000
vn 0.6644 0.5706 -0.4827
vn -0.2538 0.5706 -0.7811
vn -0.8213 0.5706 0.0000
vn -0.2538 0.5706 0.7811
vn 0.6644 0.5706 0.4827
vn 0.7905 0.6124 -0.0000
vn 0.2443 0.6124 -0.7518
vn -0.6396 0.6124 -0.4647
vn -0.6396 0.6124 0.4647
vn 0.2443 0.6124 0.7518
vn 0.6917 0.5186 -0.5026
vn -0.2642 0.5186 -0.8132
vn -0.8550 0.5186 0.0000
vn -0.2642 0.5186 0.8132
vn 0.6917 0.5186 0.5026
vn 0.7406 0.6719 -0.0000
vn 0.2244 0.6313 -0.7424
vn 0.1970 0.6290 -0.7520
vn -0.6757 0.5587 -0.4809
vn -0.6873 0.5578 -0.4654
vn -0.6757 0.5587 0.4809
vn -0.6873 0.5578 0.4654
vn 0.2244 0.6313 0.7424
vn 0.1970 0.6290 0.7520
vn -0.0644 0.9979 -0.0000
vn -0.0644 0.9979 0.0000
vn 0.6535 0.5754 -0.4917
vn -0.2883 0.4946 -0.8199
vn -0.8975 0.4411 0.0000
vn -0.2883 0.4946 0.8199
vn 0.6535 0.5754 0.4917
vn 0.7393 0.6734 -0.0000
vn 0.2238 0.6318 -0.7421
vn 0.1957 0.6294 -0.7520
vn -0.6766 0.5572 -0.4813
vn -0.6885 0.5562 -0.4654
vn -0.6766 0.5572 0.4813
vn -0.6885 0.5562 0.4654
vn 0.2238 0.6318 0.7421
vn 0.1957 0.6294 0.7520
vn -0.0661 0.9978 0.0000
vn 0.6525 0.5769 -0.4915
vn -0.2890 0.4939 -0.8201
vn -0.8986 0.4388 0.0000
vn -0.2890 0.4939 0.8201
vn 0.6525 0.5769 0.4915
vn 0.6447 0.7644 -0.0000
vn 0.1830 0.6627 -0.7262
vn 0.1107 0.6455 -0.7557
vn 0.6447 0.7644 0.0000
vn -0.7336 0.4455 -0.5132
vn -0.7696 0.4363 -0.4662
vn -0.7336 0.4455 0.5132
vn -0.7696 0.4363 0.4662
vn 0.1830 0.6627 0.7262
vn 0.1107 0.6455 0.7557
vn -0.1837 0.9830 0.0000
vn -0.1837 0.9830 -0.0000
vn 0.5775 0.6665 -0.4714
vn -0.3310 0.4430 -0.8332
vn -0.9608 0.2771 0.0000
vn -0.3310 0.4430 0.8332
vn 0.5775 0.6665 0.4714
vn 0.6249 0.6002 -0.4993
vn -0.3334 0.3508 -0.8751
vn -0.9854 0.1705 -0.0000
vn -0.3334 0.3508 0.8751
vn 0.6249 0.6002 0.4993
vn -0.1239 0.9923 -0.0000
vn 0.7290 0.2320 -0.6439
vn -0.5185 0.1490 -0.8420
vn -0.4986 0.2060 -0.8420
vn 0.7701 0.2366 -0.5925
vn -0.9077 0.1252 -0.4005
vn -0.9396 0.1200 -0.3206
vn -0.9830 0.1758 0.0525
vn -0.8572 0.1786 0.4830
vn -0.7860 0.1885 0.5888
vn -0.9757 0.1730 0.1345
vn -0.3041 0.2233 0.9261
vn 0.8284 0.1742 0.5323
vn 0.8353 0.1710 0.5225
vn -0.2238 0.2147 0.9507
vn 0.0000 -1.0000 -0.0000
vn -0.8543 0.1903 0.4837
vn -0.7829 0.1942 0.5910
# 94 vertex normals

vt 0.4194 0.3036 0.0000
vt 0.6397 0.0005 0.0000
vt 0.6770 0.1153 0.0000
vt 0.5401 0.3036 0.0000
vt 0.9960 0.1163 0.0000
vt 0.8984 0.1872 0.0000
vt 0.9960 0.4910 0.0000
vt 0.8984 0.4200 0.0000
vt 0.6397 0.6068 0.0000
vt 0.6770 0.4920 0.0000
vt 0.0452 0.4545 0.0000
vt 0.0452 0.6309 0.0000
vt 0.0005 0.5944 0.0000
vt 0.0005 0.4545 0.0000
vt 0.3769 0.1157 0.0000
vt 0.3769 0.3070 0.0000
vt 0.3356 0.2783 0.0000
vt 0.3356 0.1267 0.0000
vt 0.7605 0.1951 0.0000
vt 0.7605 0.3912 0.0000
vt 0.7202 0.3709 0.0000
vt 0.7202 0.2154 0.0000
vt 0.0994 0.3513 0.0000
vt 0.0994 0.5426 0.0000
vt 0.0581 0.5317 0.0000
vt 0.0581 0.3800 0.0000
vt 0.0452 0.2780 0.0000
vt 0.0005 0.3146 0.0000
vt 0.2525 0.5241 0.0000
vt 0.4992 0.7034 0.0000
vt 0.4058 0.7338 0.0000
vt 0.2525 0.6224 0.0000
vt 0.4050 0.9935 0.0000
vt 0.3472 0.9140 0.0000
vt 0.1000 0.9935 0.0000
vt 0.1577 0.9140 0.0000
vt 0.0057 0.7034 0.0000
vt 0.0992 0.7338 0.0000
vt 0.4575 0.0542 0.0000
vt 0.3232 0.0542 0.0000
vt 0.3510 0.0152 0.0000
vt 0.4575 0.0152 0.0000
vt 0.9753 0.9874 0.0000
vt 0.8297 0.9874 0.0000
vt 0.8515 0.9514 0.0000
vt 0.9670 0.9514 0.0000
vt 0.8096 0.9938 0.0000
vt 0.6603 0.9938 0.0000
vt 0.6757 0.9587 0.0000
vt 0.7942 0.9587 0.0000
vt 0.8845 0.9476 0.0000
vt 0.7388 0.9476 0.0000
vt 0.7472 0.9116 0.0000
vt 0.8626 0.9116 0.0000
vt 0.5918 0.0542 0.0000
vt 0.5640 0.0152 0.0000
vt 0.0782 0.1162 0.0000
vt 0.1612 0.0208 0.0000
vt 0.1760 0.0526 0.0000
vt 0.1236 0.1162 0.0000
vt 0.2601 0.0529 0.0000
vt 0.2375 0.0725 0.0000
vt 0.5086 0.1296 0.0000
vt 0.5086 0.2339 0.0000
vt 0.4585 0.2142 0.0000
vt 0.4585 0.1494 0.0000
vt 0.2699 0.1783 0.0000
vt 0.1514 0.2167 0.0000
vt 0.1691 0.1786 0.0000
vt 0.2427 0.1548 0.0000
vt 0.1463 0.0769 0.0000
vt 0.0668 0.1865 0.0000
vt 0.2750 0.1187 0.0000
vt 0.2750 0.2543 0.0000
vt 0.1463 0.2962 0.0000
vt 0.9959 0.6067 0.0000
vt 0.9995 0.7206 0.0000
vt 0.9668 0.6970 0.0000
vt 0.9640 0.6067 0.0000
vt 0.2355 0.7192 0.0000
vt 0.2365 0.8387 0.0000
vt 0.2068 0.8228 0.0000
vt 0.2060 0.7281 0.0000
vt 0.3006 0.7031 0.0000
vt 0.3006 0.8232 0.0000
vt 0.2717 0.8108 0.0000
vt 0.2717 0.7155 0.0000
vt 0.4590 0.3670 0.0000
vt 0.4538 0.4864 0.0000
vt 0.4246 0.4765 0.0000
vt 0.4287 0.3819 0.0000
vt 0.9995 0.4927 0.0000
vt 0.9668 0.5163 0.0000
vt 0.4561 0.8455 0.0000
vt 0.5637 0.6969 0.0000
vt 0.5900 0.7532 0.0000
vt 0.5231 0.8455 0.0000
vt 0.7379 0.7537 0.0000
vt 0.6982 0.7884 0.0000
vt 0.4725 0.9095 0.0000
vt 0.4725 0.9747 0.0000
vt 0.4413 0.9624 0.0000
vt 0.4413 0.9218 0.0000
vt 0.7379 0.9372 0.0000
vt 0.5637 0.9940 0.0000
vt 0.5900 0.9377 0.0000
vt 0.6982 0.9025 0.0000
vt 0.7363 0.8443 0.0000
vt 0.7391 0.9289 0.0000
vt 0.7148 0.9114 0.0000
vt 0.7126 0.8443 0.0000
vt 0.8811 0.8278 0.0000
vt 0.8820 0.9164 0.0000
vt 0.8599 0.9047 0.0000
vt 0.8593 0.8344 0.0000
vt 0.0795 0.5451 0.0000
vt 0.0795 0.6342 0.0000
vt 0.0581 0.6249 0.0000
vt 0.0581 0.5543 0.0000
vt 0.4816 0.3985 0.0000
vt 0.4777 0.4869 0.0000
vt 0.4561 0.4796 0.0000
vt 0.4592 0.4094 0.0000
vt 0.7391 0.7598 0.0000
vt 0.7148 0.7773 0.0000
vt 0.2110 0.3842 0.0000
vt 0.3249 0.3461 0.0000
vt 0.3245 0.3916 0.0000
vt 0.2538 0.4153 0.0000
vt 0.3648 0.7114 0.0000
vt 0.3640 0.8256 0.0000
vt 0.3084 0.8114 0.0000
vt 0.3088 0.7404 0.0000
vt 0.7218 0.5870 0.0000
vt 0.7218 0.6863 0.0000
vt 0.6760 0.6675 0.0000
vt 0.6760 0.6058 0.0000
vt 0.4219 0.5071 0.0000
vt 0.4089 0.6046 0.0000
vt 0.3646 0.5731 0.0000
vt 0.3727 0.5125 0.0000
vt 0.2100 0.5043 0.0000
vt 0.2531 0.4899 0.0000
vt 0.3676 0.4516 0.0000
vt 0.3235 0.5124 0.0000
vt 0.9914 0.8845 0.0000
vt 0.9971 0.9611 0.0000
vt 0.9794 0.9478 0.0000
vt 0.9749 0.8845 0.0000
vt 0.5501 0.6827 0.0000
vt 0.4875 0.6817 0.0000
vt 0.4945 0.6660 0.0000
vt 0.5441 0.6668 0.0000
vt 0.6180 0.6848 0.0000
vt 0.5555 0.6848 0.0000
vt 0.5620 0.6693 0.0000
vt 0.6115 0.6693 0.0000
vt 0.5054 0.5885 0.0000
vt 0.4456 0.5701 0.0000
vt 0.4730 0.5421 0.0000
vt 0.5204 0.5567 0.0000
vt 0.9971 0.8205 0.0000
vt 0.9794 0.8337 0.0000
vt 0.9016 0.9021 0.0000
vt 0.9011 0.8845 0.0000
vt 0.5165 0.5974 0.0000
vt 0.5214 0.5975 0.0000
vt 0.5843 0.6027 0.0000
vt 0.5892 0.6027 0.0000
vt 0.5160 0.4832 0.0000
vt 0.5207 0.4847 0.0000
vt 0.9016 0.8794 0.0000
vt 0.2565 0.4927 0.0000
vt 0.2593 0.4966 0.0000
vt 0.2564 0.5005 0.0000
vt 0.2518 0.4991 0.0000
vt 0.2519 0.4942 0.0000
vt 0.7794 0.6270 0.0000
vt 0.8018 0.6361 0.0000
vt 0.7806 0.6810 0.0000
vt 0.7695 0.6769 0.0000
vt 0.9130 0.7357 0.0000
vt 0.9257 0.7388 0.0000
vt 0.9107 0.8073 0.0000
vt 0.9033 0.8054 0.0000
vt 0.9476 0.7441 0.0000
vt 0.9559 0.7475 0.0000
vt 0.9274 0.8124 0.0000
vt 0.9233 0.8105 0.0000
vt 0.8734 0.5994 0.0000
vt 0.9006 0.5990 0.0000
vt 0.8961 0.6485 0.0000
vt 0.8838 0.6488 0.0000
vt 0.7999 0.7263 0.0000
vt 0.8517 0.7370 0.0000
vt 0.8106 0.8359 0.0000
vt 0.7841 0.8299 0.0000
vt 0.8789 0.6962 0.0000
vt 0.8676 0.6737 0.0000
vt 0.8731 0.6707 0.0000
vt 0.8765 0.6688 0.0000
vt 0.8815 0.6659 0.0000
vt 0.8950 0.6720 0.0000
vt 0.9027 0.6755 0.0000
vt 0.9021 0.6979 0.0000
vt 0.9614 0.7498 0.0000
vt 0.9302 0.8136 0.0000
vt 0.9703 0.7535 0.0000
vt 0.9347 0.8156 0.0000
# 209 texture coords

g Cylinder009
usemtl Material__25
s 8
f 1/1/1 2/2/2 3/3/2 4/4/1 
f 2/2/2 5/5/3 6/6/3 3/3/2 
f 5/5/3 7/7/4 8/8/4 6/6/3 
f 7/7/4 9/9/5 10/10/5 8/8/4 
f 9/9/5 1/1/1 4/4/1 10/10/5 
s off
f 4/4/6 3/3/6 3/3/6 4/4/6 
f 3/3/7 6/6/7 6/6/7 3/3/7 
f 6/6/8 8/8/8 8/8/8 6/6/8 
f 8/8/7 10/10/7 10/10/7 8/8/7 
f 10/10/8 4/4/8 4/4/8 10/10/8 
f 4/11/9 3/12/9 11/13/9 12/14/9 
f 3/15/10 6/16/10 13/17/10 11/18/10 
f 6/19/11 8/20/11 14/21/11 13/22/11 
f 8/23/12 10/24/12 15/25/12 14/26/12 
f 10/27/13 4/11/13 12/14/13 15/28/13 
s 8
f 16/29/14 17/30/15 18/31/15 19/32/14 
f 17/30/15 20/33/16 21/34/16 18/31/15 
f 20/33/16 22/35/17 23/36/17 21/34/16 
f 22/35/17 24/37/18 25/38/18 23/36/17 
f 24/37/18 16/29/14 19/32/14 25/38/18 
s off
f 19/32/7 18/31/7 18/31/7 19/32/7 
f 18/31/6 21/34/6 21/34/6 18/31/6 
f 21/34/7 23/36/7 23/36/7 21/34/7 
f 23/36/7 25/38/7 25/38/7 23/36/7 
f 25/38/8 19/32/8 19/32/8 25/38/8 
f 19/39/19 18/40/19 26/41/19 27/42/19 
f 18/43/20 21/44/20 28/45/20 26/46/20 
f 21/47/21 23/48/21 29/49/21 28/50/21 
f 23/51/22 25/52/22 30/53/22 29/54/22 
f 25/55/23 19/39/23 27/42/23 30/56/23 
s 8
f 31/57/24 32/58/25 33/59/26 34/60/24 
f 32/58/25 35/61/27 36/62/28 33/59/26 
f 35/63/27 37/64/29 38/65/30 36/66/28 
f 37/67/29 39/68/31 40/69/32 38/70/30 
f 39/68/31 31/57/24 34/60/24 40/69/32 
s off
f 34/60/33 33/59/33 33/71/33 34/72/33 
f 33/59/33 36/62/33 36/73/33 33/71/33 
f 36/62/34 38/70/34 38/74/34 36/73/34 
f 38/70/33 40/69/33 40/75/33 38/74/33 
f 40/69/33 34/60/33 34/72/33 40/75/33 
f 34/76/35 33/77/35 41/78/35 42/79/35 
f 33/80/36 36/81/36 43/82/36 41/83/36 
f 36/84/37 38/85/37 44/86/37 43/87/37 
f 38/88/38 40/89/38 45/90/38 44/91/38 
f 40/92/39 34/76/39 42/79/39 45/93/39 
s 8
f 46/94/40 47/95/41 48/96/42 49/97/40 
f 47/95/41 50/98/43 51/99/44 48/96/42 
f 50/100/43 52/101/45 53/102/46 51/103/44 
f 52/104/45 54/105/47 55/106/48 53/107/46 
f 54/105/47 46/94/40 49/97/40 55/106/48 
s off
f 49/97/49 48/96/49 48/96/49 49/97/49 
f 48/96/49 51/99/49 51/99/49 48/96/49 
f 51/99/49 53/107/49 53/107/49 51/99/49 
f 53/107/49 55/106/49 55/106/49 53/107/49 
f 55/106/49 49/97/49 49/97/49 55/106/49 
f 49/108/50 48/109/50 56/110/50 57/111/50 
f 48/112/51 51/113/51 58/114/51 56/115/51 
f 51/116/52 53/117/52 59/118/52 58/119/52 
f 53/120/53 55/121/53 60/122/53 59/123/53 
f 55/124/54 49/108/54 57/111/54 60/125/54 
s 8
f 61/126/55 62/127/56 63/128/57 64/129/58 
f 62/130/56 65/131/59 66/132/60 63/133/57 
f 65/134/59 67/135/61 68/136/62 66/137/60 
f 67/138/61 69/139/63 70/140/64 68/141/62 
f 69/142/63 61/126/55 64/129/58 70/143/64 
s off
f 64/129/65 63/128/65 63/128/65 64/129/65 
f 63/128/65 66/144/65 66/144/65 63/128/65 
f 66/144/66 68/145/66 68/145/66 66/144/66 
f 68/145/65 70/143/65 70/143/65 68/145/65 
f 70/143/66 64/129/66 64/129/66 70/143/66 
f 64/146/67 63/147/67 71/148/67 72/149/67 
f 63/150/68 66/151/68 73/152/68 71/153/68 
f 66/154/69 68/155/69 74/156/69 73/157/69 
f 68/158/70 70/159/70 75/160/70 74/161/70 
f 70/162/71 64/146/71 72/149/71 75/163/71 
f 72/149/72 71/148/72 76/164/72 77/165/72 
f 71/153/73 73/152/73 78/166/73 76/167/73 
f 73/157/74 74/156/74 79/168/74 78/169/74 
f 74/161/75 75/160/75 80/170/75 79/171/75 
f 75/163/76 72/149/76 77/165/76 80/172/76 
f 76/173/77 78/174/77 79/175/77 80/176/77 77/177/77 
s 8
f 81/178/78 82/179/79 83/180/80 84/181/81 
f 82/182/79 85/183/82 86/184/83 83/185/80 
f 87/186/84 88/187/85 89/188/86 90/189/87 
f 91/190/88 92/191/89 93/192/90 94/193/91 
f 92/194/89 81/195/78 84/196/81 93/197/90 
s 1
f 92/198/92 91/199/92 95/200/92 88/201/92 87/202/92 85/203/92 82/204/92 81/205/92 
s 8
f 85/183/82 87/186/84 90/189/87 86/184/83 
f 88/187/85 95/206/93 96/207/94 89/188/86 
f 95/206/93 91/208/88 94/209/91 96/207/94 
# 90 polygons

