# 3ds Max Wavefront OBJ Exporter v0.97b - (c)2007 guruware
# File Created: 18.11.2017 18:36:45

mtllib drzewo4.mtl

#
# object GeoSphere013
#

v  0.0000 58.8232 -0.0000
v  -8.1321 52.2394 -3.6196
v  0.9314 52.2394 8.8524
v  -14.4442 33.9616 -6.4280
v  -9.0434 48.0289 6.5721
v  1.6553 33.9616 15.7230
v  -17.5243 8.0815 -7.7944
v  -18.0458 14.8044 5.0529
v  -10.3730 14.8044 15.6072
v  2.0120 8.0815 19.0737
v  -16.6793 -19.6077 7.4211
v  -10.3226 -30.1604 13.0311
v  -1.6553 -33.9616 15.7230
v  7.3820 -30.1604 14.8953
v  14.7665 -19.6077 10.7342
v  7.2007 52.2394 -5.2328
v  10.2134 48.0289 4.5458
v  12.7889 33.9616 -9.2951
v  13.3989 14.8044 13.1016
v  18.7027 14.8044 1.1797
v  15.5123 8.0815 -11.2793
v  16.4465 -30.1604 2.4241
v  14.4442 -33.9616 -6.4280
v  9.2087 -30.1604 -13.8407
v  1.9128 -19.6077 -18.1553
v  -1.1699 48.0289 -11.1179
v  4.6469 14.8044 -18.1546
v  -8.3297 14.8044 -16.7869
v  -6.1240 -30.1604 -15.4552
v  -12.7889 -33.9616 -9.2951
v  -16.5907 -30.1604 -1.0546
v  -10.2134 -48.0290 4.5458
v  -1.5007 -55.2509 -6.4734
v  3.8053 -55.2509 5.4476
v  3.7878 -74.2033 -8.8260
v  -3.7743 -74.2033 -9.0402
v  -2.8331 -40.6238 -6.9005
v  0.7489 -40.6238 -6.0183
v  -4.9631 -74.2033 -6.4086
v  -3.3725 -40.6238 -5.3193
v  -7.0111 -74.2033 -1.8751
v  -6.0515 -74.2033 -0.1610
v  -3.6964 -40.6238 -1.7933
v  -4.3018 -40.6238 -2.5954
v  -4.3694 -74.2033 2.8437
v  3.2297 -74.2033 -0.9801
v  0.8839 -40.6238 -1.9762
v  -2.6351 -40.6238 -0.3873
v  -5.4077 -74.2033 0.9891
v  -3.2902 -40.6238 -1.2551
# 50 vertices

vn -0.3542 0.8991 0.2574
vn -0.6976 0.7156 0.0349
vn -0.1632 0.9794 0.1186
vn -0.2487 0.7156 0.6528
vn -0.9307 0.3523 -0.0985
vn -0.7750 0.6241 0.0997
vn -0.6984 0.5044 0.5077
vn -0.3340 0.6241 0.7063
vn -0.1934 0.3521 0.9158
vn 0.0161 0.8581 0.5132
vn -0.8946 -0.4450 0.0404
vn -0.2270 0.3676 0.9018
vn -0.7417 -0.3989 0.5392
vn 0.0838 0.0527 0.9951
vn -0.3133 -0.4169 0.8533
vn 0.5130 -0.0653 0.8559
vn 0.4000 0.8991 0.1780
vn 0.3791 0.7156 0.5867
vn 0.1843 0.9794 0.0820
vn 0.6897 0.7156 -0.1111
vn 0.3801 0.3523 0.8552
vn 0.4738 0.6241 0.6213
vn 0.7889 0.5044 0.3510
vn 0.7787 0.6241 -0.0639
vn 0.8898 0.3521 -0.2904
vn 0.4364 0.8581 -0.2705
vn 0.4822 -0.4450 0.7546
vn 0.8945 0.3676 -0.2543
vn 0.8378 -0.3989 0.3727
vn 0.8198 0.0527 -0.5702
vn 0.8956 -0.4169 -0.1553
vn 0.4847 -0.0653 -0.8722
vn -0.0458 0.8991 -0.4354
vn 0.3186 0.7156 -0.6216
vn -0.0211 0.9794 -0.2006
vn -0.4410 0.7156 -0.5417
vn 0.5506 0.3523 -0.7568
vn 0.3012 0.6241 -0.7210
vn -0.0905 0.5044 -0.8587
vn -0.4447 0.6241 -0.6424
vn -0.6964 0.3521 -0.6254
vn -0.4524 0.8581 -0.2427
vn 0.4124 -0.4450 -0.7949
vn -0.6675 0.3676 -0.6475
vn -0.0961 -0.3989 -0.9119
vn -0.9037 0.0527 -0.4249
vn -0.5823 -0.4169 -0.6980
vn -0.9977 -0.0653 0.0163
vn -0.6411 -0.7125 0.2853
vn -0.5935 -0.7900 -0.1539
vn -0.7822 -0.5167 0.3481
vn -0.2830 -0.7900 0.5439
vn -0.3466 -0.7726 -0.5320
vn -0.4813 -0.8543 -0.1963
vn -0.1715 -0.9822 0.0763
vn -0.1763 -0.8543 0.4889
vn 0.1632 -0.7726 0.6136
vn 0.0735 -0.7125 -0.6979
vn 0.0732 -0.7151 -0.6952
vn 0.3693 -0.8377 -0.4023
vn 0.3965 -0.9009 -0.1765
vn 0.5461 -0.8377 -0.0051
vn 0.5655 -0.7151 0.4110
vn 0.5676 -0.7125 0.4126
vn 0.7129 0.3170 -0.6255
vn -0.5112 0.2051 -0.8346
vn -0.5003 0.2720 -0.8220
vn 0.7558 0.3233 -0.5693
vn -0.9025 0.1722 -0.3947
vn -0.9334 0.1657 -0.3184
vn -0.9689 0.2411 0.0551
vn -0.8442 0.2447 0.4768
vn -0.7741 0.2576 0.5783
vn -0.9633 0.2378 0.1242
vn -0.3026 0.3042 0.9033
vn 0.8199 0.2379 0.5207
vn 0.8237 0.2328 0.5171
vn -0.2114 0.2921 0.9327
vn 0.0000 -1.0000 -0.0000
vn -0.8393 0.2604 0.4772
vn -0.7695 0.2653 0.5809
# 81 vertex normals

vt 0.0960 0.5321 0.0000
vt 0.1437 0.5977 0.0000
vt 0.0154 0.5406 0.0000
vt 0.6122 0.9632 0.0000
vt 0.5593 0.8979 0.0000
vt 0.6927 0.9146 0.0000
vt 0.0541 0.6263 0.0000
vt 0.1663 0.9301 0.0000
vt 0.0876 0.9247 0.0000
vt 0.1781 0.8651 0.0000
vt 0.5281 0.8292 0.0000
vt 0.6330 0.8000 0.0000
vt 0.7514 0.7995 0.0000
vt 0.0921 0.8154 0.0000
vt 0.1900 0.7993 0.0000
vt 0.4987 0.5168 0.0000
vt 0.3231 0.4618 0.0000
vt 0.2736 0.3807 0.0000
vt 0.6229 0.6383 0.0000
vt 0.4749 0.9806 0.0000
vt 0.1874 0.8429 0.0000
vt 0.1505 0.6893 0.0000
vt 0.7981 0.6405 0.0000
vt 0.2200 0.6946 0.0000
vt 0.4191 0.2005 0.0000
vt 0.5220 0.1228 0.0000
vt 0.5781 0.1833 0.0000
vt 0.1290 0.4581 0.0000
vt 0.2419 0.9527 0.0000
vt 0.0354 0.4487 0.0000
vt 0.8367 0.3963 0.0000
vt 0.7385 0.4010 0.0000
vt 0.8459 0.3096 0.0000
vt 0.2761 0.8488 0.0000
vt 0.6274 0.3215 0.0000
vt 0.7329 0.2769 0.0000
vt 0.8312 0.2223 0.0000
vt 0.2027 0.0087 0.0000
vt 0.3509 0.0847 0.0000
vt 0.3825 0.1646 0.0000
vt 0.3768 0.7505 0.0000
vt 0.6564 0.1574 0.0000
vt 0.7285 0.1173 0.0000
vt 0.8128 0.0866 0.0000
vt 0.0342 0.2856 0.0000
vt 0.0554 0.1608 0.0000
vt 0.1300 0.1739 0.0000
vt 0.2028 0.4335 0.0000
vt 0.1262 0.3986 0.0000
vt 0.2529 0.3529 0.0000
vt 0.1985 0.5213 0.0000
vt 0.3456 0.3580 0.0000
vt 0.3628 0.2775 0.0000
vt 0.9562 0.2385 0.0000
vt 0.1490 0.2768 0.0000
vt 0.2526 0.2248 0.0000
vt 0.4401 0.8886 0.0000
vt 0.4849 0.2934 0.0000
vt 0.3084 0.2414 0.0000
vt 0.2576 0.1612 0.0000
vt 0.1718 0.1221 0.0000
vt 0.2227 0.0685 0.0000
vt 0.4517 0.7342 0.0000
vt 0.5242 0.7200 0.0000
vt 0.5967 0.7109 0.0000
vt 0.5311 0.6351 0.0000
vt 0.0228 0.9105 0.0000
vt 0.1062 0.0407 0.0000
vt 0.6086 0.2736 0.0000
vt 0.5849 0.4124 0.0000
vt 0.4645 0.3269 0.0000
vt 0.4648 0.4745 0.0000
vt 0.3379 0.4137 0.0000
vt 0.1983 0.5977 0.0000
vt 0.6810 0.5398 0.0000
vt 0.6018 0.5921 0.0000
vt 0.5968 0.0322 0.0000
vt 0.9188 0.7938 0.0000
vt 0.9708 0.8237 0.0000
vt 0.9200 0.8974 0.0000
vt 0.8940 0.8840 0.0000
vt 0.9703 0.7072 0.0000
vt 0.9474 0.7080 0.0000
vt 0.9414 0.6193 0.0000
vt 0.9547 0.6190 0.0000
vt 0.9080 0.7095 0.0000
vt 0.8927 0.7068 0.0000
vt 0.9108 0.6181 0.0000
vt 0.9186 0.6198 0.0000
vt 0.9068 0.4448 0.0000
vt 0.9795 0.4431 0.0000
vt 0.9677 0.5393 0.0000
vt 0.9347 0.5404 0.0000
vt 0.8012 0.8483 0.0000
vt 0.8670 0.8673 0.0000
vt 0.8143 0.9555 0.0000
vt 0.7808 0.9449 0.0000
vt 0.9210 0.4005 0.0000
vt 0.8954 0.3496 0.0000
vt 0.9078 0.3426 0.0000
vt 0.9155 0.3383 0.0000
vt 0.9270 0.3319 0.0000
vt 0.9574 0.3456 0.0000
vt 0.9750 0.3535 0.0000
vt 0.9736 0.4042 0.0000
vt 0.8824 0.7049 0.0000
vt 0.9056 0.6170 0.0000
vt 0.8658 0.7020 0.0000
vt 0.8972 0.6151 0.0000
# 109 texture coords

g GeoSphere013
usemtl Material__27
s off
f 1/1/1 2/2/1 3/3/1 
f 2/4/2 4/5/2 5/6/2 
f 2/2/3 5/7/3 3/3/3 
f 3/8/4 5/9/4 6/10/4 
f 4/5/5 7/11/5 8/12/5 
f 4/5/6 8/12/6 5/6/6 
f 5/6/7 8/12/7 9/13/7 
f 5/9/8 9/14/8 6/10/8 
f 6/10/9 9/14/9 10/15/9 
f 7/16/10 11/17/10 12/18/10 
f 7/11/11 12/19/11 8/12/11 
f 8/20/12 12/21/12 13/22/12 
f 8/12/13 13/23/13 9/13/13 
f 9/14/14 13/22/14 14/24/14 
f 9/14/15 14/24/15 10/15/15 
f 10/25/16 14/26/16 15/27/16 
f 1/1/17 3/3/17 16/28/17 
f 3/8/18 6/10/18 17/29/18 
f 3/3/19 17/30/19 16/28/19 
f 16/31/20 17/32/20 18/33/20 
f 6/10/21 10/15/21 19/34/21 
f 6/10/22 19/34/22 17/29/22 
f 17/32/23 19/35/23 20/36/23 
f 17/32/24 20/36/24 18/33/24 
f 18/33/25 20/36/25 21/37/25 
f 10/38/26 15/39/26 22/40/26 
f 10/15/27 22/41/27 19/34/27 
f 19/35/28 22/42/28 23/43/28 
f 19/35/29 23/43/29 20/36/29 
f 20/36/30 23/43/30 24/44/30 
f 20/36/31 24/44/31 21/37/31 
f 21/45/32 24/46/32 25/47/32 
f 1/1/33 16/28/33 2/2/33 
f 16/48/34 18/49/34 26/50/34 
f 16/28/35 26/51/35 2/2/35 
f 2/52/36 26/50/36 4/53/36 
f 18/33/37 21/37/37 27/54/37 
f 18/49/38 27/55/38 26/50/38 
f 26/50/39 27/55/39 28/56/39 
f 26/50/40 28/56/40 4/53/40 
f 4/5/41 28/57/41 7/11/41 
f 21/58/42 25/59/42 29/60/42 
f 21/45/43 29/61/43 27/55/43 
f 27/55/44 29/61/44 30/62/44 
f 27/55/45 30/62/45 28/56/45 
f 28/57/46 30/63/46 31/64/46 
f 28/57/47 31/64/47 7/11/47 
f 7/11/48 31/64/48 11/65/48 
f 11/65/49 31/64/49 12/19/49 
f 31/64/50 30/63/50 32/66/50 
f 31/64/51 32/66/51 12/19/51 
f 12/21/52 32/67/52 13/22/52 
f 30/62/53 29/61/53 33/68/53 
f 30/69/54 33/70/54 32/71/54 
f 32/71/55 33/70/55 34/72/55 
f 32/71/56 34/72/56 13/73/56 
f 13/22/57 34/74/57 14/24/57 
f 29/61/58 25/47/58 24/46/58 
f 29/61/59 24/46/59 33/68/59 
f 33/70/60 24/75/60 23/76/60 
f 33/70/61 23/76/61 34/72/61 
f 34/77/62 23/43/62 22/42/62 
f 34/77/63 22/42/63 14/26/63 
f 14/26/64 22/42/64 15/27/64 
s 8
f 35/78/65 36/79/66 37/80/67 38/81/68 
f 36/82/66 39/83/69 40/84/70 37/85/67 
f 41/86/71 42/87/72 43/88/73 44/89/74 
f 45/90/75 46/91/76 47/92/77 48/93/78 
f 46/94/76 35/95/65 38/96/68 47/97/77 
s 1
f 46/98/79 45/99/79 49/100/79 42/101/79 41/102/79 39/103/79 36/104/79 35/105/79 
s 8
f 39/83/69 41/86/71 44/89/74 40/84/70 
f 42/87/72 49/106/80 50/107/81 43/88/73 
f 49/106/80 45/108/75 48/109/78 50/107/81 
# 9 polygons - 64 triangles

