# 3ds Max Wavefront OBJ Exporter v0.97b - (c)2007 guruware
# File Created: 18.11.2017 20:37:33

mtllib kamien5.mtl

#
# object GeoSphere015
#

v  -11.1911 9.2198 -8.4120
v  12.2066 2.2079 -18.1949
v  -19.6371 4.8370 -6.6297
v  6.1848 -5.1354 -49.9900
v  -35.7068 -4.8101 -23.5686
v  -50.9628 -2.4139 20.0241
v  -12.4441 3.2785 24.1746
v  8.0925 -9.2198 48.9892
v  41.6124 -5.5286 33.0659
v  41.2651 -4.8101 -15.5878
# 10 vertices

vn -0.2872 0.1184 -0.9406
vn -0.2082 0.9019 -0.3734
vn -0.1078 0.7096 -0.6906
vn -0.5865 0.7585 -0.2789
vn -0.6776 0.6975 0.2541
vn -0.0351 0.8836 0.4649
vn -0.8287 -0.5448 0.1683
vn 0.1169 0.7496 0.6459
vn 0.5711 0.7667 0.2879
vn 0.3030 0.9533 0.0164
vn 0.4048 0.8947 0.1856
vn 0.4279 0.7816 -0.4607
# 12 vertex normals

vt 0.6851 0.7288 0.0000
vt 0.5146 0.5865 0.0000
vt 0.7627 0.6740 0.0000
vt 0.4871 0.2974 0.0000
vt 0.6153 0.0005 0.0000
vt 0.9564 0.2898 0.0000
vt 0.8930 0.4771 0.0000
vt 0.8363 0.3204 0.0000
vt 0.9246 0.4689 0.0000
vt 0.4555 0.9420 0.0000
vt 0.3666 0.9754 0.0000
vt 0.2780 0.7492 0.0000
vt 0.6522 0.5278 0.0000
vt 0.0005 0.5950 0.0000
vt 0.7849 0.8814 0.0000
vt 0.4902 0.9995 0.0000
vt 0.3540 0.7449 0.0000
vt 0.7771 0.8712 0.0000
vt 0.5361 0.7682 0.0000
vt 0.8911 0.6807 0.0000
vt 0.5204 0.7320 0.0000
vt 0.0005 0.5910 0.0000
vt 0.2009 0.2017 0.0000
# 23 texture coords

g GeoSphere015
usemtl wire_115115115
s off
f 1/1/1 2/2/1 3/3/1 
f 2/4/2 4/5/2 5/6/2 
f 2/2/3 5/7/3 3/3/3 
f 3/8/4 5/6/4 6/9/4 
f 1/10/5 3/11/5 7/12/5 
f 3/8/6 6/9/6 8/13/6 
f 3/11/7 8/14/7 7/12/7 
f 7/15/8 8/16/8 9/17/8 
f 1/18/9 7/19/9 2/20/9 
f 7/21/10 9/22/10 10/23/10 
f 7/21/11 10/23/11 2/4/11 
f 2/4/12 10/23/12 4/5/12 
# 0 polygons - 12 triangles

