# 3ds Max Wavefront OBJ Exporter v0.97b - (c)2007 guruware
# File Created: 18.11.2017 20:36:40

mtllib kamien2.mtl

#
# object GeoSphere001
#

v  -2.5125 26.9139 -0.0262
v  17.3640 14.2381 -0.0000
v  0.5867 17.9329 -21.1875
v  33.9284 -21.1966 -0.0000
v  14.6914 -20.7768 -25.4463
v  -16.9642 -17.6851 -29.3828
v  -14.8927 18.2192 3.1385
v  -29.3828 -26.4664 -0.0000
v  -16.9642 -21.7038 29.3828
v  14.6914 -20.7768 25.4463
# 10 vertices

vn 0.5182 0.8120 -0.2687
vn 0.7499 0.3505 -0.5611
vn 0.7654 0.3391 -0.5470
vn 0.1370 0.1575 -0.9780
vn -0.5942 0.7054 -0.3864
vn -0.8540 0.4714 -0.2200
vn -0.8040 0.2969 -0.5151
vn -0.9021 0.2688 0.3377
vn 0.1180 0.1870 0.9753
vn 0.0878 0.5440 0.8345
vn 0.1492 0.5738 0.8053
vn 0.7499 0.3505 0.5611
# 12 vertex normals

vt 0.0056 0.6936 0.0000
vt 0.1557 0.6933 0.0000
vt 0.1120 0.9442 0.0000
vt 0.5754 0.6933 0.0000
vt 0.5704 0.9947 0.0000
vt 0.9994 0.5292 0.0000
vt 0.9995 0.9491 0.0000
vt 0.7071 0.8091 0.0000
vt 0.4275 0.2032 0.0000
vt 0.5802 0.0005 0.0000
vt 0.5122 0.2603 0.0000
vt 0.9836 0.0078 0.0000
vt 0.9992 0.3460 0.0000
vt 0.8697 0.6481 0.0000
vt 0.2288 0.0005 0.0000
vt 0.3582 0.1056 0.0000
vt 0.0005 0.1246 0.0000
vt 0.3503 0.5461 0.0000
vt 0.0030 0.5116 0.0000
vt 0.5704 0.3919 0.0000
# 20 texture coords

g GeoSphere001
usemtl Material__35
s off
f 1/1/1 2/2/1 3/3/1 
f 2/2/2 4/4/2 5/5/2 
f 2/2/3 5/5/3 3/3/3 
f 3/6/4 5/7/4 6/8/4 
f 1/9/5 3/10/5 7/11/5 
f 3/10/6 6/12/6 8/13/6 
f 3/10/7 8/13/7 7/11/7 
f 7/11/8 8/13/8 9/14/8 
f 1/15/9 7/16/9 2/17/9 
f 7/16/10 9/18/10 10/19/10 
f 7/16/11 10/19/11 2/17/11 
f 2/2/12 10/20/12 4/4/12 
# 0 polygons - 12 triangles

