# 3ds Max Wavefront OBJ Exporter v0.97b - (c)2007 guruware
# File Created: 18.11.2017 19:01:46

mtllib drzewo6.mtl

#
# object Cylinder003
#

v  6.6311 0.0000 -5.0053
v  -1.7621 0.0000 -5.2430
v  -0.7175 14.8875 -2.8681
v  3.2582 14.8875 -1.8890
v  -3.0816 0.0000 -2.3222
v  -1.3162 14.8875 -1.1132
v  -5.3547 0.0000 2.7096
v  -4.2896 0.0000 4.6121
v  -1.6757 14.8875 2.8004
v  -2.3477 14.8875 1.9101
v  -2.4226 0.0000 7.9470
v  6.0117 0.0000 3.7030
v  3.4080 14.8875 2.5973
v  -0.4978 14.8875 4.3609
v  -3.5750 0.0000 5.8885
v  -0.2832 25.4407 -2.3005
v  3.3362 25.4407 -1.8107
v  -1.0062 25.4407 -0.6999
v  -1.7078 25.4407 2.7780
v  -2.2518 25.4407 2.0574
v  3.0564 25.4407 2.1238
v  -0.7543 25.4407 4.0413
v  -1.0658 43.2581 -1.7211
v  3.0036 36.0887 -1.4881
v  -1.4190 42.8135 -1.1231
v  -1.4671 41.0729 1.4334
v  -2.0275 43.5486 -0.0928
v  2.7580 36.0887 1.9643
v  -0.4849 36.7332 4.1086
v  2.5781 49.7060 -1.0757
v  -0.0308 49.7060 -1.4287
v  0.1939 52.3822 -1.5350
v  2.6825 52.1970 -1.1447
v  -1.1772 50.4240 -0.1281
v  -0.8812 52.5194 -0.6638
v  -0.1403 51.1749 4.1947
v  2.3764 49.7060 1.7604
v  2.5456 52.3822 1.5805
v  0.8190 52.6630 3.9896
v  2.7989 64.8737 -1.1835
v  1.3316 65.9313 -2.0733
v  1.2869 66.6923 -1.9485
v  2.8819 65.6404 -1.6825
v  1.0236 66.8193 -0.9706
v  0.9868 67.5339 -0.8854
v  0.7013 67.7482 0.1829
v  1.0517 67.7482 0.6471
v  1.0098 68.4143 0.6729
v  0.6729 68.4143 0.2267
v  1.6297 67.7482 1.4129
v  3.4020 65.9313 0.6696
v  3.1325 66.6923 0.8134
v  1.5655 68.4143 1.4091
v  0.4750 80.5136 0.3192
v  0.3200 80.5136 0.6623
v  0.1579 80.5136 1.0213
v  0.2489 80.5136 1.1419
v  0.3086 80.5136 1.2209
v  0.3991 80.5136 1.3409
v  1.0131 80.5136 1.0319
v  1.0582 80.5136 0.3981
v  0.4128 54.9891 -1.6386
v  2.7841 54.6235 -1.2120
v  -0.9447 54.1486 0.2153
v  -0.2507 54.5783 -0.7325
v  1.1895 54.1486 3.0426
v  1.2812 67.7482 0.9511
v  0.3883 54.1486 1.9813
v  2.7104 54.9891 1.4052
v  -2.0057 52.6630 0.2474
v  -2.3763 51.1749 1.2324
v  -1.5641 51.1749 2.3085
v  -6.9354 58.2403 6.5791
v  -7.4503 58.2403 5.8969
v  -7.2154 58.8358 5.2725
v  -5.1898 59.4655 7.0445
v  -5.4246 58.8356 7.6449
v  -5.6977 59.4655 6.3717
v  -6.5427 59.4302 5.2521
v  -6.0328 58.2047 7.7749
v  1.2324 67.6198 -1.7963
v  2.9615 66.6269 -1.2752
v  0.6384 69.2263 0.2800
v  0.9421 68.4050 -0.7815
v  1.4872 69.2263 1.4045
v  1.1686 69.2263 0.9824
v  3.3460 67.3342 0.5450
v  1.2304 68.4143 0.9652
v  -1.0541 44.3814 -1.6807
v  2.9257 38.5812 -1.4126
v  2.6882 38.5812 1.9270
v  -0.4218 39.3767 4.1244
v  -2.0332 44.7398 -0.1310
v  -1.5326 45.1788 -0.9233
v  -1.2248 14.8875 3.3977
v  -1.3429 25.4407 3.2615
v  -1.0912 39.4119 2.4573
v  -1.0191 51.1749 3.0304
v  -6.5899 58.2047 7.0368
v  -0.1392 54.1486 1.2824
v  -6.0321 59.4302 5.9286
v  0.9587 69.2263 0.7044
v  -6.3821 58.8235 6.4512
v  -6.2085 58.8195 6.6191
v  -7.8756 61.0787 9.9680
v  -8.5242 61.0787 9.4999
v  -7.0816 62.0465 9.6463
v  -7.2626 61.5630 9.9571
v  -7.6728 62.0465 9.2196
v  -8.1738 61.5506 9.3057
v  -8.1660 64.5748 11.4710
v  -8.4635 64.5748 11.2564
v  -7.8018 65.0187 11.3235
v  -7.8848 64.7969 11.4660
v  -8.0730 65.0187 11.1278
v  -8.3028 64.7912 11.1673
v  -8.4351 66.8029 12.8394
v  -8.5011 66.8029 12.7917
v  -8.3542 66.9015 12.8066
v  -8.3726 66.8522 12.8383
v  -8.4144 66.9015 12.7631
v  -8.4654 66.8509 12.7719
v  -10.9748 63.4804 6.1168
v  -10.8041 63.8897 5.6431
v  -10.3396 64.2982 5.6186
v  -9.9964 64.2982 6.1213
v  -10.6286 63.4804 6.6237
v  -10.2450 63.8812 6.5198
v  -12.1326 67.6252 7.1329
v  -12.1050 67.6913 7.0564
v  -12.0300 67.7573 7.0524
v  -11.9746 67.7573 7.1336
v  -12.0767 67.6252 7.2147
v  -12.0148 67.6900 7.1979
# 134 vertices

vn 0.7237 0.2643 -0.6375
vn -0.5160 0.1701 -0.8396
vn -0.4996 0.2315 -0.8348
vn 0.7655 0.2696 -0.5843
vn -0.9060 0.1429 -0.3984
vn -0.9375 0.1371 -0.3198
vn -0.9782 0.2005 0.0535
vn -0.8528 0.2036 0.4810
vn -0.7820 0.2147 0.5852
vn -0.9716 0.1974 0.1307
vn -0.3039 0.2540 0.9182
vn 0.8257 0.1983 0.5281
vn 0.8313 0.1944 0.5207
vn -0.2193 0.2441 0.9446
vn 0.0000 -1.0000 -0.0000
vn 0.1898 0.0254 -0.9815
vn -0.9293 0.0498 -0.3661
vn -0.7981 -0.0012 0.6025
vn 0.4301 0.0463 0.9016
vn 0.9998 0.0132 0.0154
vn 0.1271 0.0364 -0.9912
vn -0.8955 -0.0284 -0.4441
vn -0.8663 0.0633 0.4955
vn 0.4993 0.0043 0.8664
vn 0.9971 0.0290 0.0709
vn 0.1427 -0.0426 -0.9889
vn -0.7027 -0.0190 -0.7112
vn 0.7213 -0.1326 0.6798
vn 0.9968 -0.0498 0.0624
vn 0.1952 -0.2380 -0.9515
vn -0.9660 -0.0166 -0.2580
vn -0.7960 -0.0733 0.6008
vn 0.3672 -0.0055 0.9301
vn 0.0000 1.0000 -0.0000
vn 0.3136 -0.0320 -0.9490
vn -0.8870 0.0955 -0.4517
vn -0.7943 0.0976 0.5996
vn 0.5948 0.0499 0.8023
vn 0.9937 -0.0367 -0.1060
vn 0.1608 -0.0437 -0.9860
vn -0.7020 0.3168 -0.6379
vn 0.7730 0.0717 0.6303
vn 0.9977 -0.0507 0.0446
vn -0.5726 -0.6966 0.4322
vn -0.7981 -0.2055 -0.5663
vn 0.6783 0.2974 0.6719
vn 0.4615 0.8159 -0.3483
vn -0.4271 0.3348 -0.8399
vn 0.3877 -0.1427 0.9107
vn 0.3130 0.1635 -0.9356
vn -0.9529 -0.0166 -0.3029
vn 0.4568 0.0485 0.8882
vn 0.9692 0.1662 -0.1819
vn 0.3692 0.2563 -0.8933
vn -0.9660 -0.0215 -0.2577
vn 0.4900 0.1166 0.8639
vn 0.1165 0.0339 -0.9926
vn 0.5649 0.0042 0.8252
vn 0.1205 0.0306 -0.9922
vn -0.7712 0.1165 -0.6258
vn 0.6365 0.0041 0.7713
vn -0.7204 -0.1531 -0.6765
vn -0.9669 -0.0218 -0.2541
vn -0.8912 0.0713 -0.4480
vn -0.7189 0.1055 -0.6870
vn -0.9517 -0.0088 -0.3070
vn -0.9650 -0.0160 -0.2617
vn -0.7137 0.1606 -0.6818
vn -0.9301 0.0276 -0.3664
vn -0.9003 -0.0362 -0.4337
vn -0.8492 0.2169 0.4816
vn -0.7784 0.2212 0.5875
vn -0.8736 0.0497 0.4841
vn -0.5820 -0.6974 0.4182
vn -0.8826 0.0319 0.4690
vn -0.5712 -0.6984 0.4312
vn 0.4594 0.8177 -0.3468
vn 0.4482 0.8166 -0.3636
vn -0.6264 0.6563 0.4205
vn -0.6002 0.6690 0.4384
vn -0.5058 0.6915 0.5158
vn -0.5183 0.6882 0.5077
vn -0.5777 0.6550 0.4871
vn -0.5633 0.6598 0.4973
vn -0.4908 -0.7200 0.4907
vn 0.8458 0.1112 0.5218
vn 0.4352 -0.3730 0.8194
vn 0.4362 0.7871 -0.4360
vn -0.7299 0.1117 -0.6743
vn -0.6009 0.3183 -0.7333
vn -0.5438 -0.3692 0.7536
vn 0.8898 -0.0409 0.4545
vn 0.2971 -0.3562 0.8859
vn 0.5019 0.5141 -0.6955
vn -0.7449 0.3098 -0.5909
vn -0.5301 0.4064 -0.7442
vn -0.5087 -0.4943 0.7049
vn 0.9041 -0.0671 0.4219
vn 0.3720 -0.4527 0.8103
vn 0.4546 0.6296 -0.6300
vn -0.7701 0.3531 -0.5313
vn -0.5806 0.4713 -0.6639
vn -0.4694 0.6005 0.6473
vn -0.6579 -0.4187 -0.6261
vn 0.6700 0.5619 -0.4851
vn -0.0632 0.0270 -0.9976
vn -0.7029 -0.4969 0.5089
vn 0.5156 0.3865 0.7647
vn 0.1441 0.0949 0.9850
vn -0.8869 -0.1398 -0.4403
vn 0.6965 0.5375 -0.4755
vn -0.2711 0.2525 -0.9288
vn -0.7748 -0.3461 0.5290
vn 0.7134 0.2126 0.6677
vn 0.2939 -0.0335 0.9553
vn -0.5946 0.7013 0.3933
vn -0.8531 0.0018 -0.5217
vn -0.9005 -0.0284 0.4339
vn 0.9869 -0.0466 -0.1543
# 119 vertex normals

vt 0.1714 0.0697 0.0000
vt 0.2522 0.0960 0.0000
vt 0.1950 0.2453 0.0000
vt 0.1510 0.2367 0.0000
vt 0.2785 0.0653 0.0000
vt 0.3112 0.0724 0.0000
vt 0.2816 0.2272 0.0000
vt 0.2629 0.2221 0.0000
vt 0.3657 0.0836 0.0000
vt 0.3864 0.0917 0.0000
vt 0.3257 0.2406 0.0000
vt 0.3146 0.2364 0.0000
vt 0.8264 0.0697 0.0000
vt 0.9253 0.0703 0.0000
vt 0.9051 0.2278 0.0000
vt 0.8602 0.2277 0.0000
vt 0.0833 0.0763 0.0000
vt 0.1019 0.2353 0.0000
vt 0.4155 0.7081 0.0000
vt 0.3470 0.6364 0.0000
vt 0.3642 0.6185 0.0000
vt 0.3748 0.6075 0.0000
vt 0.3906 0.5909 0.0000
vt 0.4481 0.5984 0.0000
vt 0.4815 0.6027 0.0000
vt 0.5048 0.6877 0.0000
vt 0.1742 0.3553 0.0000
vt 0.1374 0.3504 0.0000
vt 0.2507 0.3331 0.0000
vt 0.2333 0.3276 0.0000
vt 0.2887 0.3458 0.0000
vt 0.2797 0.3427 0.0000
vt 0.9037 0.3385 0.0000
vt 0.8590 0.3384 0.0000
vt 0.0974 0.3467 0.0000
vt 0.1557 0.5365 0.0000
vt 0.1249 0.4580 0.0000
vt 0.3065 0.3520 0.0000
vt 0.3249 0.3531 0.0000
vt 0.3122 0.5356 0.0000
vt 0.3046 0.5399 0.0000
vt 0.2250 0.4982 0.0000
vt 0.2004 0.5175 0.0000
vt 0.9013 0.4501 0.0000
vt 0.8606 0.4567 0.0000
vt 0.0898 0.4551 0.0000
vt 0.1088 0.5981 0.0000
vt 0.1363 0.6011 0.0000
vt 0.1315 0.6282 0.0000
vt 0.1059 0.6241 0.0000
vt 0.2967 0.6082 0.0000
vt 0.3146 0.6165 0.0000
vt 0.3072 0.6385 0.0000
vt 0.2929 0.6361 0.0000
vt 0.8621 0.6080 0.0000
vt 0.8988 0.5928 0.0000
vt 0.9013 0.6208 0.0000
vt 0.8708 0.6245 0.0000
vt 0.0793 0.5948 0.0000
vt 0.0779 0.6223 0.0000
vt 0.0912 0.7596 0.0000
vt 0.1085 0.7719 0.0000
vt 0.1081 0.7807 0.0000
vt 0.0929 0.7690 0.0000
vt 0.2645 0.7748 0.0000
vt 0.2749 0.7856 0.0000
vt 0.2747 0.7931 0.0000
vt 0.2647 0.7828 0.0000
vt 0.2015 0.7936 0.0000
vt 0.2074 0.7944 0.0000
vt 0.2065 0.8013 0.0000
vt 0.2007 0.8005 0.0000
vt 0.8986 0.7847 0.0000
vt 0.9181 0.7645 0.0000
vt 0.9153 0.7728 0.0000
vt 0.8983 0.7919 0.0000
vt 0.3324 0.5656 0.0000
vt 0.3289 0.5637 0.0000
vt 0.3253 0.5617 0.0000
vt 0.3253 0.5601 0.0000
vt 0.3253 0.5591 0.0000
vt 0.3253 0.5575 0.0000
vt 0.3324 0.5562 0.0000
vt 0.3368 0.5612 0.0000
vt 0.1271 0.6547 0.0000
vt 0.1031 0.6487 0.0000
vt 0.3126 0.6570 0.0000
vt 0.2857 0.7970 0.0000
vt 0.2999 0.6599 0.0000
vt 0.2466 0.6566 0.0000
vt 0.2173 0.7957 0.0000
vt 0.2114 0.7950 0.0000
vt 0.2330 0.6548 0.0000
vt 0.9045 0.6485 0.0000
vt 0.8805 0.6401 0.0000
vt 0.0683 0.7683 0.0000
vt 0.0762 0.6491 0.0000
vt 0.3223 0.6409 0.0000
vt 0.1854 0.5981 0.0000
vt 0.1991 0.6023 0.0000
vt 0.1693 0.7022 0.0000
vt 0.1607 0.6995 0.0000
vt 0.3334 0.6251 0.0000
vt 0.4045 0.7032 0.0000
vt 0.3982 0.7102 0.0000
vt 0.8002 0.6956 0.0000
vt 0.7939 0.6883 0.0000
vt 0.4967 0.7777 0.0000
vt 0.5042 0.7895 0.0000
vt 0.4235 0.8427 0.0000
vt 0.4188 0.8352 0.0000
vt 0.3908 0.7170 0.0000
vt 0.7878 0.6809 0.0000
vt 0.1071 0.7909 0.0000
vt 0.0841 0.9347 0.0000
vt 0.0777 0.9334 0.0000
vt 0.0891 0.7784 0.0000
vt 0.2846 0.8124 0.0000
vt 0.2759 0.9296 0.0000
vt 0.2718 0.9290 0.0000
vt 0.2745 0.8022 0.0000
vt 0.2143 0.8109 0.0000
vt 0.1924 0.9267 0.0000
vt 0.1904 0.9264 0.0000
vt 0.2089 0.8102 0.0000
vt 0.9189 0.7796 0.0000
vt 0.8994 0.9208 0.0000
vt 0.8921 0.9210 0.0000
vt 0.8978 0.8005 0.0000
vt 0.0707 0.9339 0.0000
vt 0.0685 0.7850 0.0000
vt 0.2852 0.8039 0.0000
vt 0.2160 0.8026 0.0000
vt 0.2102 0.8018 0.0000
vt 0.1539 0.5478 0.0000
vt 0.1220 0.4833 0.0000
vt 0.9008 0.4762 0.0000
vt 0.8609 0.4844 0.0000
vt 0.0880 0.4804 0.0000
vt 0.3232 0.5566 0.0000
vt 0.3131 0.5606 0.0000
vt 0.2878 0.6628 0.0000
vt 0.2680 0.9284 0.0000
vt 0.2649 0.7925 0.0000
vt 0.3042 0.5517 0.0000
vt 0.3567 0.3549 0.0000
vt 0.3243 0.5441 0.0000
vt 0.4008 0.0972 0.0000
vt 0.3331 0.2435 0.0000
vt 0.2947 0.3479 0.0000
vt 0.2414 0.4852 0.0000
vt 0.2082 0.6052 0.0000
vt 0.1752 0.7038 0.0000
vt 0.4240 0.1060 0.0000
vt 0.3450 0.2480 0.0000
vt 0.3044 0.3513 0.0000
vt 0.2679 0.4644 0.0000
vt 0.2229 0.6100 0.0000
vt 0.1845 0.7067 0.0000
vt 0.2102 0.6517 0.0000
vt 0.2240 0.6536 0.0000
vt 0.5091 0.7973 0.0000
vt 0.5166 0.8091 0.0000
vt 0.4316 0.8550 0.0000
vt 0.4269 0.8475 0.0000
vt 0.1883 0.9261 0.0000
vt 0.1863 0.9258 0.0000
vt 0.1998 0.8089 0.0000
vt 0.2053 0.8097 0.0000
vt 0.1699 0.7207 0.0000
vt 0.1644 0.7187 0.0000
vt 0.1691 0.7108 0.0000
vt 0.1715 0.7118 0.0000
vt 0.1783 0.7492 0.0000
vt 0.1699 0.7484 0.0000
vt 0.7653 0.7224 0.0000
vt 0.7617 0.7174 0.0000
vt 0.7565 0.7110 0.0000
vt 0.3804 0.8566 0.0000
vt 0.3779 0.8494 0.0000
vt 0.1457 0.7529 0.0000
vt 0.1542 0.7548 0.0000
vt 0.1446 0.7984 0.0000
vt 0.1381 0.7975 0.0000
vt 0.1367 0.7517 0.0000
vt 0.1307 0.7967 0.0000
vt 0.1814 0.7894 0.0000
vt 0.1776 0.7891 0.0000
vt 0.7460 0.7536 0.0000
vt 0.7443 0.7513 0.0000
vt 0.7420 0.7483 0.0000
vt 0.3432 0.8605 0.0000
vt 0.3421 0.8572 0.0000
vt 0.1172 0.8290 0.0000
vt 0.1143 0.8286 0.0000
vt 0.1109 0.8282 0.0000
vt 0.1850 0.8169 0.0000
vt 0.1842 0.8169 0.0000
vt 0.7302 0.7739 0.0000
vt 0.7298 0.7734 0.0000
vt 0.7293 0.7727 0.0000
vt 0.3169 0.8620 0.0000
vt 0.3166 0.8613 0.0000
vt 0.1008 0.8522 0.0000
vt 0.1002 0.8521 0.0000
vt 0.0994 0.8520 0.0000
vt 0.1855 0.8176 0.0000
vt 0.1854 0.8183 0.0000
vt 0.1846 0.8182 0.0000
vt 0.1843 0.8175 0.0000
vt 0.4366 0.7616 0.0000
vt 0.4320 0.7662 0.0000
vt 0.3909 0.9056 0.0000
vt 0.3874 0.9003 0.0000
vt 0.4274 0.7704 0.0000
vt 0.1282 0.7558 0.0000
vt 0.1221 0.7537 0.0000
vt 0.3981 0.1752 0.0000
vt 0.4039 0.1820 0.0000
vt 0.3671 0.2369 0.0000
vt 0.3625 0.2321 0.0000
vt 0.3916 0.1696 0.0000
vt 0.3581 0.2280 0.0000
vt 0.4524 0.8038 0.0000
vt 0.4515 0.8046 0.0000
vt 0.3538 0.9277 0.0000
vt 0.3533 0.9268 0.0000
vt 0.4508 0.8053 0.0000
vt 0.1099 0.7988 0.0000
vt 0.1089 0.7985 0.0000
vt 0.3441 0.2733 0.0000
vt 0.3433 0.2726 0.0000
vt 0.3427 0.2719 0.0000
vt 0.1098 0.7998 0.0000
vt 0.1092 0.8006 0.0000
vt 0.1082 0.8003 0.0000
vt 0.1081 0.7992 0.0000
vt 0.1961 0.5293 0.0000
vt 0.2594 0.4909 0.0000
vt 0.0647 0.7773 0.0000
# 240 texture coords

g Cylinder003
usemtl Material__29
s 8
f 1/1/1 2/2/2 3/3/3 4/4/4 
f 2/5/2 5/6/5 6/7/6 3/8/3 
f 7/9/7 8/10/8 9/11/9 10/12/10 
f 11/13/11 12/14/12 13/15/13 14/16/14 
f 12/17/12 1/1/1 4/4/4 13/18/13 
s 1
f 12/19/15 11/20/15 15/21/15 8/22/15 7/23/15 5/24/15 2/25/15 1/26/15 
s off
f 4/4/16 3/3/16 16/27/16 17/28/16 
f 3/8/17 6/7/17 18/29/17 16/30/17 
f 10/12/18 9/11/18 19/31/18 20/32/18 
f 14/16/19 13/15/19 21/33/19 22/34/19 
f 13/18/20 4/4/20 17/28/20 21/35/20 
f 17/28/21 16/27/21 23/36/21 24/37/21 
f 16/38/22 18/39/22 25/40/22 23/41/22 
f 20/32/23 19/31/23 26/42/23 27/43/23 
f 22/34/24 21/33/24 28/44/24 29/45/24 
f 21/35/25 17/28/25 24/37/25 28/46/25 
f 30/47/26 31/48/26 32/49/26 33/50/26 
f 31/51/27 34/52/27 35/53/27 32/54/27 
f 36/55/28 37/56/28 38/57/28 39/58/28 
f 37/59/29 30/47/29 33/50/29 38/60/29 
f 40/61/30 41/62/30 42/63/30 43/64/30 
f 41/65/31 44/66/31 45/67/31 42/68/31 
f 46/69/32 47/70/32 48/71/32 49/72/32 
f 50/73/33 51/74/33 52/75/33 53/76/33 
f 54/77/34 55/78/34 56/79/34 57/80/34 58/81/34 59/82/34 60/83/34 61/84/34 
f 62/85/35 41/62/35 40/61/35 63/86/35 
f 64/87/36 46/88/36 44/66/36 65/89/36 
f 66/90/37 50/91/37 67/92/37 68/93/37 
f 69/94/38 51/74/38 50/73/38 66/95/38 
f 63/86/39 40/61/39 51/96/39 69/97/39 
f 32/49/40 62/85/40 63/86/40 33/50/40 
f 70/98/41 64/87/41 65/89/41 35/53/41 
f 38/57/42 69/94/42 66/95/42 39/58/42 
f 33/50/43 63/86/43 69/97/43 38/60/43 
f 71/99/44 72/100/44 73/101/44 74/102/44 
f 70/98/45 71/103/45 74/104/45 75/105/45 
f 39/58/46 66/95/46 76/106/46 77/107/46 
f 66/108/47 68/109/47 78/110/47 76/111/47 
f 64/87/48 70/98/48 75/105/48 79/112/48 
f 36/55/49 39/58/49 77/107/49 80/113/49 
f 81/114/50 54/115/50 61/116/50 82/117/50 
f 83/118/51 56/119/51 55/120/51 84/121/51 
f 85/122/32 59/123/32 58/124/32 86/125/32 
f 87/126/52 60/127/52 59/128/52 85/129/52 
f 82/117/53 61/116/53 60/130/53 87/131/53 
f 42/63/54 81/114/54 82/117/54 43/64/54 
f 49/132/55 83/118/55 84/121/55 45/67/55 
f 53/133/32 85/122/32 86/125/32 88/134/32 
f 52/75/56 87/126/56 85/129/56 53/76/56 
f 23/36/57 89/135/57 90/136/57 24/37/57 
f 28/44/58 91/137/58 92/138/58 29/45/58 
f 24/37/25 90/136/25 91/139/25 28/46/25 
f 89/135/59 31/48/59 30/47/59 90/136/59 
f 93/140/60 71/103/60 34/52/60 94/141/60 
f 91/137/61 37/56/61 36/55/61 92/138/61 
f 90/136/25 30/47/25 37/59/25 91/139/25 
f 34/52/62 71/103/62 70/98/62 35/53/62 
f 44/66/63 46/88/63 49/132/63 45/67/63 
f 44/66/64 41/65/64 62/142/64 65/89/64 
f 65/89/65 62/142/65 32/54/65 35/53/65 
f 55/120/66 54/143/66 81/144/66 84/121/66 
f 84/121/67 81/144/67 42/68/67 45/67/67 
f 34/52/68 31/51/68 89/145/68 94/141/68 
s 8
f 5/6/5 7/9/7 10/12/10 6/7/6 
s off
f 6/7/69 10/12/69 20/32/69 18/29/69 
f 18/39/70 20/146/70 27/147/70 25/40/70 
s 8
f 8/10/8 15/148/71 95/149/72 9/11/9 
s off
f 9/11/18 95/149/18 96/150/18 19/31/18 
f 19/31/73 96/150/73 97/151/73 26/42/73 
f 72/100/74 98/152/74 99/153/74 73/101/74 
s 8
f 15/148/71 11/154/11 14/155/14 95/149/72 
s off
f 95/149/18 14/155/18 22/156/18 96/150/18 
f 96/150/75 22/156/75 29/157/75 97/151/75 
f 98/152/76 36/158/76 80/159/76 99/153/76 
f 47/70/32 67/92/32 88/134/32 48/71/32 
f 47/70/37 46/69/37 64/160/37 100/161/37 
f 100/162/77 64/163/77 79/164/77 101/165/77 
f 57/166/32 56/167/32 83/168/32 102/169/32 
f 102/169/32 83/168/32 49/72/32 48/71/32 
f 67/92/37 47/70/37 100/161/37 68/93/37 
f 68/109/78 100/162/78 101/165/78 78/110/78 
f 58/124/32 57/166/32 102/169/32 86/125/32 
f 86/125/32 102/169/32 48/71/32 88/134/32 
f 67/92/32 50/91/32 53/133/32 88/134/32 
s 1
f 78/170/79 101/171/80 103/172/81 104/173/82 
f 103/172/81 73/101/83 99/153/84 104/173/82 
s off
f 99/153/85 80/159/85 105/174/85 106/175/85 
f 77/107/86 76/106/86 107/176/86 108/177/86 
f 80/113/87 77/107/87 108/177/87 105/178/87 
f 76/111/88 78/110/88 109/179/88 107/180/88 
f 104/181/89 99/182/89 106/183/89 110/184/89 
f 78/185/90 104/181/90 110/184/90 109/186/90 
f 106/175/91 105/174/91 111/187/91 112/188/91 
f 108/177/92 107/176/92 113/189/92 114/190/92 
f 105/178/93 108/177/93 114/190/93 111/191/93 
f 107/180/94 109/179/94 115/192/94 113/193/94 
f 110/184/95 106/183/95 112/194/95 116/195/95 
f 109/186/96 110/184/96 116/195/96 115/196/96 
f 112/188/97 111/187/97 117/197/97 118/198/97 
f 114/190/98 113/189/98 119/199/98 120/200/98 
f 111/191/99 114/190/99 120/200/99 117/201/99 
f 113/193/100 115/192/100 121/202/100 119/203/100 
f 116/195/101 112/194/101 118/204/101 122/205/101 
f 115/196/102 116/195/102 122/205/102 121/206/102 
f 117/197/103 120/207/103 119/208/103 121/209/103 122/210/103 118/198/103 
f 75/105/104 74/104/104 123/211/104 124/212/104 
f 101/165/105 79/164/105 125/213/105 126/214/105 
f 79/112/106 75/105/106 124/212/106 125/215/106 
f 74/102/107 73/101/107 127/216/107 123/217/107 
f 103/218/108 101/219/108 126/220/108 128/221/108 
f 73/222/109 103/218/109 128/221/109 127/223/109 
f 124/212/110 123/211/110 129/224/110 130/225/110 
f 126/214/111 125/213/111 131/226/111 132/227/111 
f 125/215/112 124/212/112 130/225/112 131/228/112 
f 123/217/113 127/216/113 133/229/113 129/230/113 
f 128/221/114 126/220/114 132/231/114 134/232/114 
f 127/223/115 128/221/115 134/232/115 133/233/115 
f 129/230/116 133/229/116 134/234/116 132/235/116 131/236/116 130/237/116 
f 93/140/117 94/141/117 89/145/117 23/41/117 25/40/117 27/147/117 
f 98/152/118 72/100/118 71/99/118 93/238/118 27/43/118 26/42/118 97/151/118 29/157/118 92/239/118 36/158/118 
f 40/61/119 43/64/119 82/117/119 87/131/119 52/240/119 51/96/119 
# 121 polygons

