# 3ds Max Wavefront OBJ Exporter v0.97b - (c)2007 guruware
# File Created: 18.11.2017 19:04:30

mtllib drzewo7.mtl

#
# object Cylinder001
#

v  8.3081 0.0000 -0.0000
v  1.7523 0.0000 -5.2463
v  1.1553 14.8875 -2.7214
v  3.7386 14.8875 0.4552
v  -1.0605 0.0000 -3.7100
v  -0.3799 14.8875 -1.6814
v  -5.9063 0.0000 -1.0633
v  -6.7214 0.0000 4.8834
v  -3.0246 14.8875 3.1808
v  -3.0246 14.8875 0.1102
v  2.5673 0.0000 6.5773
v  1.1553 14.8875 4.1263
v  1.1599 25.4407 -2.0067
v  3.7537 25.4407 0.5648
v  -0.3814 25.4407 -1.1648
v  -3.0368 25.4407 2.7711
v  -3.0368 25.4407 0.2855
v  1.1599 25.4407 3.5364
v  1.0178 36.0887 -1.6347
v  3.2938 36.0887 0.6218
v  -0.4072 35.1020 -1.0477
v  -2.8623 36.7332 2.9872
v  -2.8623 36.7332 -0.0364
v  1.0178 36.0887 3.2294
v  2.7058 49.7060 0.6947
v  0.8361 49.7060 -1.1589
v  1.0795 52.3822 -1.1084
v  2.8307 52.1970 0.7024
v  -0.8624 50.4240 -0.8114
v  -0.3034 52.5194 -1.0607
v  -2.6391 51.1749 3.2635
v  0.8361 49.7060 2.8368
v  1.0795 52.3822 2.7951
v  -1.7499 52.6630 3.6777
v  3.4444 62.7608 0.7416
v  2.3119 65.9313 -0.8526
v  2.2010 66.6923 -0.7798
v  3.2727 63.5932 0.3933
v  1.4017 66.8193 -0.1580
v  1.3211 67.5339 -0.1121
v  0.4495 67.7482 0.5685
v  0.4495 67.7482 2.1095
v  0.4006 68.4143 2.0678
v  0.4006 68.4143 0.5863
v  2.2990 63.2188 2.5840
v  1.5983 63.6422 2.5364
v  0.1869 80.5136 0.5409
v  -0.1436 80.5136 0.7214
v  -0.4893 80.5136 0.9102
v  -0.4893 80.5136 1.3107
v  0.1869 80.5136 1.4340
v  0.6048 80.5136 0.9552
v  1.3167 54.9891 -1.0592
v  2.9523 54.6235 0.7100
v  -0.8837 54.1486 -0.3973
v  0.2412 54.5783 -0.7357
v  -0.8837 54.1486 3.1451
v  1.3167 54.9891 2.7545
v  -1.7499 52.6630 -1.0108
v  -2.6391 51.1749 -0.4480
v  -9.6614 57.6201 2.9192
v  -9.6614 57.6201 -0.1167
v  -8.9340 58.8373 -0.5772
v  -8.2255 60.0525 2.8223
v  -8.9340 58.8373 3.2579
v  -8.2255 60.0525 -0.0753
v  -19.4881 68.9703 2.3881
v  -19.4881 68.9703 0.3940
v  -19.0103 69.7698 0.0916
v  -18.5449 70.5680 2.3245
v  -19.0103 69.7698 2.6106
v  -18.5449 70.5680 0.4213
v  -24.8884 79.3195 1.9478
v  -24.8884 79.3195 0.8176
v  -24.6176 79.7727 0.6462
v  -24.3538 80.2251 1.9117
v  -24.6176 79.7727 2.0739
v  -24.3538 80.2251 0.8330
v  2.0659 67.6198 -0.6912
v  2.5312 64.2688 0.7664
v  0.3408 69.2263 0.6081
v  1.2228 68.4050 -0.0562
v  0.3408 69.2263 2.0170
v  1.4744 64.3543 2.4508
v  4.0348 64.9571 2.0481
v  2.8562 65.4284 3.4220
v  3.0951 66.5089 2.0665
v  3.8582 65.8137 1.7883
v  2.1352 65.8640 3.3865
v  2.0077 66.5968 3.3227
v  4.9086 70.1156 2.1294
v  4.2267 70.6539 3.3243
v  4.1155 71.2642 2.1455
v  4.6397 70.6771 1.9035
v  3.7783 71.0734 3.2934
v  3.5599 71.5487 3.2379
v  5.6816 73.9185 2.1294
v  4.9997 74.4569 3.3243
v  4.8885 75.0672 2.1455
v  5.4127 74.4800 1.9035
v  4.5513 74.8764 3.2934
v  4.3329 75.3517 3.2379
v  5.9502 77.7140 2.5044
v  5.7393 77.8805 2.8740
v  5.7049 78.0692 2.5094
v  5.8671 77.8876 2.4346
v  5.6007 78.0102 2.8644
v  5.5331 78.1572 2.8472
v  0.9846 38.5812 -1.5476
v  3.1862 38.5812 0.6351
v  -2.8214 39.3767 3.0378
v  -2.8214 39.3767 -0.1117
v  0.9846 38.5812 3.1576
v  -0.8756 40.3507 -0.8458
v  -2.1371 41.6319 -4.0639
v  -2.1640 39.8956 -4.0144
v  0.3846 39.4722 -5.0643
v  0.3628 41.1094 -5.0071
v  -0.5514 38.8241 -4.6787
v  -0.8590 42.2717 -4.5461
v  -1.8739 46.3204 -10.5073
v  -1.8953 44.9331 -10.4677
v  0.1410 44.5948 -11.3065
v  0.1236 45.9029 -11.2608
v  -0.6069 44.0770 -10.9985
v  -0.8527 46.8316 -10.8925
v  -1.4771 50.7161 -14.0538
v  -1.4905 49.5230 -14.0198
v  -0.2261 49.2321 -14.7411
v  -0.2369 50.3571 -14.7018
v  -0.6904 48.7868 -14.4762
v  -0.8431 51.1557 -14.3851
v  -1.4629 58.2674 -17.1890
v  -1.4759 57.9864 -17.9836
v  -0.2392 58.4083 -18.3353
v  -0.2498 58.6253 -17.5705
v  -0.6934 58.1339 -18.5773
v  -0.8427 58.5852 -16.9651
v  -1.1076 59.7773 -17.5138
v  -1.1134 59.6534 -17.8643
v  -0.5680 59.8395 -18.0194
v  -0.5727 59.9352 -17.6821
v  -0.7683 59.7184 -18.1261
v  -0.8341 59.9175 -17.4151
# 144 vertices

vn 0.9617 0.2643 -0.0728
vn 0.0940 0.1701 -0.9809
vn 0.1042 0.2315 -0.9672
vn 0.9630 0.2696 -0.0052
vn -0.4831 0.1429 -0.8638
vn -0.5556 0.1371 -0.8201
vn -0.8149 0.2139 -0.5387
vn -0.7957 0.2540 0.5498
vn -0.7533 0.2316 0.6155
vn -0.8590 0.1880 -0.4761
vn 0.3408 0.1983 0.9190
vn 0.3498 0.1944 0.9164
vn 0.0000 -1.0000 -0.0000
vn 0.7428 0.0254 -0.6690
vn -0.5212 0.0498 -0.8520
vn -1.0000 -0.0012 0.0000
vn -0.1999 0.0463 0.9787
vn 0.7887 0.0132 0.6147
vn 0.7036 0.0342 -0.7097
vn -0.4387 0.0180 -0.8984
vn -0.9999 0.0155 -0.0000
vn -0.1235 0.0043 0.9923
vn 0.7531 0.0290 0.6573
vn 0.7096 -0.0426 -0.7033
vn -0.1324 -0.0190 -0.9910
vn 0.1661 -0.1326 0.9772
vn 0.7580 -0.0498 0.6503
vn 0.8375 0.0545 -0.5436
vn -0.6156 -0.0166 -0.7879
vn -0.9973 -0.0733 -0.0000
vn -0.0536 -0.1181 -0.9916
vn 0.0000 1.0000 -0.0000
vn 0.7449 -0.0498 -0.6654
vn -0.4359 0.0955 -0.8949
vn -0.9952 0.0976 -0.0000
vn 0.0270 0.0523 0.9983
vn 0.8046 -0.0675 0.5900
vn 0.7224 -0.0437 -0.6901
vn -0.1760 0.3168 -0.9320
vn 0.2372 0.0717 0.9688
vn 0.7695 -0.0507 0.6367
vn -0.6762 -0.7367 -0.0000
vn -0.2411 -0.2140 -0.9466
vn 0.1589 0.2498 0.9552
vn 0.6267 0.7793 -0.0000
vn 0.1848 0.2812 -0.9417
vn -0.1906 -0.1559 0.9692
vn -0.7560 -0.6545 -0.0000
vn -0.2726 -0.1936 -0.9425
vn 0.1898 0.2314 0.9542
vn 0.7137 0.7004 -0.0000
vn 0.2198 0.2601 -0.9402
vn -0.2147 -0.1407 0.9665
vn -0.8866 -0.4626 -0.0000
vn -0.3471 -0.1432 -0.9268
vn 0.2527 0.1926 0.9482
vn 0.8569 0.5155 -0.0000
vn 0.2914 0.2150 -0.9321
vn -0.2741 -0.1023 0.9562
vn -0.8611 0.5084 -0.0000
vn 0.9677 0.1367 -0.2118
vn -0.5780 -0.0166 -0.8158
vn -0.1724 0.0485 0.9838
vn 0.8242 0.0960 0.5581
vn 0.8536 0.3578 0.3786
vn -0.6158 -0.0215 -0.7876
vn -0.0334 0.0851 0.9958
vn 0.6496 -0.4628 0.6032
vn 0.0821 0.4998 -0.8622
vn -0.2327 -0.2955 0.9266
vn -0.7134 0.4392 -0.5461
vn -0.7619 -0.0659 0.6444
vn 0.8990 0.0280 -0.4371
vn 0.7669 -0.1648 0.6202
vn -0.3069 0.0766 -0.9486
vn -0.0357 0.0286 0.9990
vn -0.7857 0.2079 -0.5826
vn -0.1339 0.0594 0.9892
vn 0.6006 -0.0836 -0.7952
vn 0.8220 -0.1671 0.5444
vn -0.3510 0.0713 -0.9337
vn -0.0577 0.0117 0.9983
vn -0.8586 0.1745 -0.4820
vn -0.1735 0.0353 0.9842
vn 0.5053 -0.1027 -0.8568
vn 0.8405 -0.1119 0.5301
vn -0.2382 0.1805 -0.9543
vn 0.0448 0.1208 0.9917
vn -0.8230 0.2835 -0.4923
vn 0.0251 0.1273 0.9915
vn 0.6735 0.0253 -0.7388
vn 0.7794 0.5646 0.2718
vn -0.0463 0.0042 0.9989
vn -0.2822 -0.0107 -0.9593
vn 0.0434 0.0041 0.9991
vn -0.1674 -0.1531 -0.9739
vn -0.6187 -0.0218 -0.7853
vn -0.4414 0.0713 -0.8945
vn -0.1599 0.1055 -0.9815
vn -0.5746 -0.0088 -0.8184
vn -0.6126 -0.0160 -0.7903
vn -0.2715 0.0175 -0.9623
vn -0.5216 0.0276 -0.8527
vn -0.4354 -0.0057 -0.9002
vn -0.9863 0.0105 -0.1647
vn 0.9864 0.0189 -0.1635
vn -0.6064 -0.5672 -0.5573
vn 0.7133 0.6207 0.3254
vn -0.2616 0.8571 0.4438
vn 0.1815 -0.6831 -0.7074
vn -0.9994 0.0146 -0.0302
vn 0.9995 0.0143 -0.0273
vn -0.6125 -0.6105 -0.5021
vn 0.7044 0.5761 0.4146
vn -0.1833 0.7984 0.5735
vn 0.2587 -0.7417 -0.6188
vn -0.9950 0.0106 -0.0990
vn 0.9962 0.0146 -0.0861
vn -0.6383 -0.4500 -0.6245
vn 0.7191 0.4482 0.5310
vn -0.0246 0.6286 0.7773
vn 0.0888 -0.5895 -0.8029
vn -0.9998 0.0092 0.0167
vn 0.9999 0.0070 0.0149
vn -0.6040 -0.3284 -0.7262
vn 0.6827 0.2401 0.6902
vn -0.1341 0.3533 0.9258
vn 0.2673 -0.3695 -0.8900
vn -0.9745 0.2163 -0.0605
vn 0.9706 0.2347 -0.0531
vn -0.6159 0.1887 -0.7649
vn 0.6880 0.2282 0.6889
vn -0.4523 0.2880 0.8441
vn 0.3184 0.2735 -0.9077
vn -0.3666 0.8862 -0.2834
# 135 vertex normals

vt 0.4910 0.1867 0.0000
vt 0.5475 0.2079 0.0000
vt 0.5024 0.3120 0.0000
vt 0.4714 0.3045 0.0000
vt 0.7614 0.1367 0.0000
vt 0.7842 0.1447 0.0000
vt 0.7489 0.2527 0.0000
vt 0.7359 0.2475 0.0000
vt 0.8224 0.1579 0.0000
vt 0.8620 0.1796 0.0000
vt 0.7922 0.2726 0.0000
vt 0.7715 0.2618 0.0000
vt 0.1863 0.1845 0.0000
vt 0.2336 0.1783 0.0000
vt 0.2343 0.2549 0.0000
vt 0.2128 0.2578 0.0000
vt 0.4283 0.1887 0.0000
vt 0.4367 0.3020 0.0000
vt 0.5655 0.4237 0.0000
vt 0.5171 0.3730 0.0000
vt 0.5480 0.3409 0.0000
vt 0.5886 0.3461 0.0000
vt 0.6122 0.3492 0.0000
vt 0.6287 0.4093 0.0000
vt 0.4842 0.3893 0.0000
vt 0.4582 0.3847 0.0000
vt 0.7195 0.3264 0.0000
vt 0.7074 0.3212 0.0000
vt 0.7563 0.3428 0.0000
vt 0.7398 0.3352 0.0000
vt 0.2408 0.3079 0.0000
vt 0.2195 0.3108 0.0000
vt 0.4300 0.3809 0.0000
vt 0.4690 0.4649 0.0000
vt 0.4461 0.4607 0.0000
vt 0.2212 0.1527 0.0000
vt 0.2329 0.1468 0.0000
vt 0.2657 0.2105 0.0000
vt 0.2588 0.2222 0.0000
vt 0.7234 0.4185 0.0000
vt 0.7033 0.4093 0.0000
vt 0.2470 0.3614 0.0000
vt 0.2280 0.3672 0.0000
vt 0.4213 0.4575 0.0000
vt 0.4303 0.5601 0.0000
vt 0.4497 0.5630 0.0000
vt 0.4455 0.5821 0.0000
vt 0.4274 0.5785 0.0000
vt 0.7808 0.5170 0.0000
vt 0.7816 0.5310 0.0000
vt 0.7655 0.5339 0.0000
vt 0.7621 0.5242 0.0000
vt 0.2386 0.4395 0.0000
vt 0.2551 0.4298 0.0000
vt 0.2582 0.4430 0.0000
vt 0.2438 0.4468 0.0000
vt 0.4095 0.5568 0.0000
vt 0.4075 0.5762 0.0000
vt 0.4147 0.6580 0.0000
vt 0.4275 0.6832 0.0000
vt 0.4270 0.6889 0.0000
vt 0.4171 0.6648 0.0000
vt 0.7672 0.6350 0.0000
vt 0.7746 0.6428 0.0000
vt 0.7745 0.6481 0.0000
vt 0.7673 0.6407 0.0000
vt 0.7824 0.6509 0.0000
vt 0.7938 0.6520 0.0000
vt 0.7930 0.6569 0.0000
vt 0.7821 0.6558 0.0000
vt 0.8144 0.5626 0.0000
vt 0.8273 0.5284 0.0000
vt 0.8289 0.5343 0.0000
vt 0.8130 0.5673 0.0000
vt 0.5597 0.5809 0.0000
vt 0.5572 0.5796 0.0000
vt 0.5546 0.5782 0.0000
vt 0.5546 0.5752 0.0000
vt 0.5597 0.5743 0.0000
vt 0.5628 0.5778 0.0000
vt 0.4418 0.6008 0.0000
vt 0.4246 0.5961 0.0000
vt 0.7557 0.5437 0.0000
vt 0.6588 0.5744 0.0000
vt 0.6623 0.5637 0.0000
vt 0.7496 0.5367 0.0000
vt 0.8115 0.5519 0.0000
vt 0.7853 0.5493 0.0000
vt 0.2616 0.4561 0.0000
vt 0.2735 0.4970 0.0000
vt 0.2681 0.5216 0.0000
vt 0.2495 0.4537 0.0000
vt 0.3977 0.6570 0.0000
vt 0.4053 0.5951 0.0000
vt 0.7693 0.5442 0.0000
vt 0.6566 0.5040 0.0000
vt 0.6813 0.5153 0.0000
vt 0.6500 0.5776 0.0000
vt 0.6299 0.5683 0.0000
vt 0.7828 0.5455 0.0000
vt 0.7637 0.6137 0.0000
vt 0.7527 0.6127 0.0000
vt 0.2162 0.4877 0.0000
vt 0.2118 0.4817 0.0000
vt 0.6698 0.1908 0.0000
vt 0.6881 0.2097 0.0000
vt 0.6364 0.2568 0.0000
vt 0.6214 0.2414 0.0000
vt 0.7417 0.6122 0.0000
vt 0.2071 0.4759 0.0000
vt 0.6008 0.6757 0.0000
vt 0.5876 0.6696 0.0000
vt 0.7225 0.7170 0.0000
vt 0.7153 0.7164 0.0000
vt 0.1699 0.5471 0.0000
vt 0.1669 0.5432 0.0000
vt 0.5556 0.3304 0.0000
vt 0.5457 0.3203 0.0000
vt 0.7080 0.7160 0.0000
vt 0.1639 0.5393 0.0000
vt 0.5624 0.7519 0.0000
vt 0.5549 0.7485 0.0000
vt 0.6738 0.7885 0.0000
vt 0.6697 0.7881 0.0000
vt 0.1454 0.5993 0.0000
vt 0.1438 0.5970 0.0000
vt 0.4935 0.3866 0.0000
vt 0.4880 0.3809 0.0000
vt 0.6656 0.7879 0.0000
vt 0.1420 0.5949 0.0000
vt 0.5617 0.7558 0.0000
vt 0.5590 0.7588 0.0000
vt 0.5518 0.7555 0.0000
vt 0.5522 0.7515 0.0000
vt 0.4271 0.6960 0.0000
vt 0.4298 0.7938 0.0000
vt 0.4254 0.7938 0.0000
vt 0.4135 0.6720 0.0000
vt 0.7816 0.6619 0.0000
vt 0.7756 0.7457 0.0000
vt 0.7727 0.7452 0.0000
vt 0.7744 0.6546 0.0000
vt 0.7920 0.6629 0.0000
vt 0.7785 0.7460 0.0000
vt 0.2564 0.5286 0.0000
vt 0.2420 0.8338 0.0000
vt 0.2291 0.8344 0.0000
vt 0.2378 0.6212 0.0000
vt 0.4207 0.7947 0.0000
vt 0.3990 0.6751 0.0000
vt 0.2588 0.5107 0.0000
vt 0.2385 0.6059 0.0000
vt 0.4035 0.6741 0.0000
vt 0.3900 0.6731 0.0000
vt 0.1379 0.1367 0.0000
vt 0.1451 0.1394 0.0000
vt 0.1499 0.1586 0.0000
vt 0.1423 0.1556 0.0000
vt 0.3019 0.5495 0.0000
vt 0.2862 0.5628 0.0000
vt 0.1591 0.1404 0.0000
vt 0.1625 0.1578 0.0000
vt 0.2847 0.5805 0.0000
vt 0.4053 0.6804 0.0000
vt 0.3957 0.7118 0.0000
vt 0.3848 0.7127 0.0000
vt 0.1527 0.1958 0.0000
vt 0.1475 0.1928 0.0000
vt 0.3491 0.6730 0.0000
vt 0.3391 0.6846 0.0000
vt 0.1617 0.1964 0.0000
vt 0.3350 0.6968 0.0000
vt 0.3981 0.7161 0.0000
vt 0.3901 0.7386 0.0000
vt 0.3796 0.7402 0.0000
vt 0.1550 0.2238 0.0000
vt 0.1498 0.2208 0.0000
vt 0.3784 0.7643 0.0000
vt 0.3684 0.7758 0.0000
vt 0.5671 0.5909 0.0000
vt 0.5765 0.5911 0.0000
vt 0.5799 0.6197 0.0000
vt 0.5705 0.6195 0.0000
vt 0.3643 0.7881 0.0000
vt 0.3923 0.7427 0.0000
vt 0.3846 0.7632 0.0000
vt 0.3817 0.7645 0.0000
vt 0.1563 0.2465 0.0000
vt 0.1547 0.2456 0.0000
vt 0.4053 0.8472 0.0000
vt 0.4022 0.8508 0.0000
vt 0.5777 0.6424 0.0000
vt 0.5748 0.6424 0.0000
vt 0.4009 0.8546 0.0000
vt 0.3852 0.7645 0.0000
vt 0.3843 0.7662 0.0000
vt 0.3815 0.7671 0.0000
vt 0.3813 0.7659 0.0000
vt 0.4654 0.4826 0.0000
vt 0.4433 0.4785 0.0000
vt 0.7157 0.4362 0.0000
vt 0.6948 0.4266 0.0000
vt 0.2485 0.3739 0.0000
vt 0.2299 0.3805 0.0000
vt 0.4192 0.4755 0.0000
vt 0.8621 0.5081 0.0000
vt 0.8487 0.4975 0.0000
vt 0.6656 0.5535 0.0000
vt 0.7437 0.5301 0.0000
vt 0.7699 0.7448 0.0000
vt 0.7675 0.6477 0.0000
vt 0.8539 0.4784 0.0000
vt 0.2529 0.1367 0.0000
vt 0.2888 0.2124 0.0000
vt 0.6608 0.4298 0.0000
vt 0.6663 0.4181 0.0000
vt 0.4898 0.4933 0.0000
vt 0.4876 0.5051 0.0000
vt 0.6972 0.3871 0.0000
vt 0.6625 0.4035 0.0000
vt 0.4560 0.4992 0.0000
vt 0.4810 0.5161 0.0000
vt 0.5171 0.5180 0.0000
vt 0.5340 0.5159 0.0000
vt 0.5522 0.5410 0.0000
vt 0.5411 0.5423 0.0000
vt 0.2811 0.2459 0.0000
vt 0.2766 0.2536 0.0000
vt 0.6047 0.4430 0.0000
vt 0.6090 0.4340 0.0000
vt 0.5304 0.5368 0.0000
vt 0.5289 0.5463 0.0000
vt 0.6058 0.4225 0.0000
vt 0.5233 0.5548 0.0000
vt 0.2462 0.2954 0.0000
vt 0.2574 0.2950 0.0000
vt 0.2885 0.3441 0.0000
vt 0.2796 0.3444 0.0000
vt 0.3056 0.3018 0.0000
vt 0.3020 0.3079 0.0000
vt 0.5672 0.4613 0.0000
vt 0.5712 0.4534 0.0000
vt 0.5522 0.5739 0.0000
vt 0.5512 0.5823 0.0000
vt 0.5690 0.4450 0.0000
vt 0.5467 0.5888 0.0000
vt 0.3116 0.3784 0.0000
vt 0.3054 0.3776 0.0000
vt 0.3217 0.3421 0.0000
vt 0.3198 0.3470 0.0000
vt 0.5228 0.5008 0.0000
vt 0.5190 0.4960 0.0000
vt 0.5735 0.6434 0.0000
vt 0.5678 0.6444 0.0000
vt 0.5122 0.4931 0.0000
vt 0.5617 0.6445 0.0000
vt 0.3433 0.4275 0.0000
vt 0.3380 0.4289 0.0000
vt 0.3490 0.4128 0.0000
vt 0.3455 0.4154 0.0000
vt 0.5136 0.5088 0.0000
vt 0.5120 0.5065 0.0000
vt 0.5700 0.6538 0.0000
vt 0.5675 0.6542 0.0000
vt 0.5088 0.5054 0.0000
vt 0.5647 0.6543 0.0000
vt 0.3490 0.4362 0.0000
vt 0.3467 0.4368 0.0000
vt 0.3501 0.4250 0.0000
vt 0.3485 0.4262 0.0000
vt 0.5810 0.6083 0.0000
vt 0.5796 0.6063 0.0000
vt 0.5811 0.6040 0.0000
vt 0.5836 0.6034 0.0000
vt 0.5849 0.6048 0.0000
vt 0.5838 0.6079 0.0000
# 276 texture coords

g Cylinder001
usemtl Material__30
s 8
f 1/1/1 2/2/2 3/3/3 4/4/4 
f 2/5/2 5/6/5 6/7/6 3/8/3 
f 7/9/7 8/10/8 9/11/9 10/12/10 
f 8/13/8 11/14/11 12/15/12 9/16/9 
f 11/17/11 1/1/1 4/4/4 12/18/12 
s 1
f 11/19/13 8/20/13 7/21/13 5/22/13 2/23/13 1/24/13 
s off
f 4/4/14 3/3/14 13/25/14 14/26/14 
f 3/8/15 6/7/15 15/27/15 13/28/15 
f 10/12/16 9/11/16 16/29/16 17/30/16 
f 9/16/17 12/15/17 18/31/17 16/32/17 
f 12/18/18 4/4/18 14/26/18 18/33/18 
f 14/26/19 13/25/19 19/34/19 20/35/19 
f 13/36/20 15/37/20 21/38/20 19/39/20 
f 17/30/21 16/29/21 22/40/21 23/41/21 
f 16/32/22 18/31/22 24/42/22 22/43/22 
f 18/33/23 14/26/23 20/35/23 24/44/23 
f 25/45/24 26/46/24 27/47/24 28/48/24 
f 26/49/25 29/50/25 30/51/25 27/52/25 
f 31/53/26 32/54/26 33/55/26 34/56/26 
f 32/57/27 25/45/27 28/48/27 33/58/27 
f 35/59/28 36/60/28 37/61/28 38/62/28 
f 36/63/29 39/64/29 40/65/29 37/66/29 
f 41/67/30 42/68/30 43/69/30 44/70/30 
f 42/71/31 45/72/31 46/73/31 43/74/31 
f 47/75/32 48/76/32 49/77/32 50/78/32 51/79/32 52/80/32 
f 53/81/33 36/60/33 35/59/33 54/82/33 
f 55/83/34 41/84/34 39/85/34 56/86/34 
f 57/87/35 42/68/35 41/67/35 55/88/35 
f 58/89/36 45/90/36 42/91/36 57/92/36 
f 54/82/37 35/59/37 45/93/37 58/94/37 
f 27/47/38 53/81/38 54/82/38 28/48/38 
f 59/95/39 55/83/39 56/86/39 30/51/39 
f 33/55/40 58/89/40 57/92/40 34/56/40 
f 28/48/41 54/82/41 58/94/41 33/58/41 
f 60/96/42 31/97/42 61/98/42 62/99/42 
f 59/95/43 60/100/43 62/101/43 63/102/43 
f 34/56/44 57/92/44 64/103/44 65/104/44 
f 57/105/45 55/106/45 66/107/45 64/108/45 
f 55/83/46 59/95/46 63/102/46 66/109/46 
f 31/53/47 34/56/47 65/104/47 61/110/47 
f 62/99/48 61/98/48 67/111/48 68/112/48 
f 63/102/49 62/101/49 68/113/49 69/114/49 
f 65/104/50 64/103/50 70/115/50 71/116/50 
f 64/108/51 66/107/51 72/117/51 70/118/51 
f 66/109/52 63/102/52 69/114/52 72/119/52 
f 61/110/53 65/104/53 71/116/53 67/120/53 
f 68/112/54 67/111/54 73/121/54 74/122/54 
f 69/114/55 68/113/55 74/123/55 75/124/55 
f 71/116/56 70/115/56 76/125/56 77/126/56 
f 70/118/57 72/117/57 78/127/57 76/128/57 
f 72/119/58 69/114/58 75/124/58 78/129/58 
f 67/120/59 71/116/59 77/126/59 73/130/59 
f 73/121/60 77/131/60 76/132/60 78/133/60 75/134/60 74/122/60 
f 79/135/61 47/136/61 52/137/61 80/138/61 
f 81/139/62 49/140/62 48/141/62 82/142/62 
f 83/143/30 50/144/30 49/140/30 81/139/30 
f 84/145/63 51/146/63 50/147/63 83/148/63 
f 80/138/64 52/137/64 51/149/64 84/150/64 
f 37/61/65 79/135/65 80/138/65 38/62/65 
f 44/70/66 81/139/66 82/142/66 40/65/66 
f 43/69/30 83/143/30 81/139/30 44/70/30 
f 46/151/67 84/145/67 83/148/67 43/152/67 
f 45/93/68 35/59/68 85/153/68 86/154/68 
f 38/155/69 80/156/69 87/157/69 88/158/69 
f 46/151/70 45/90/70 86/159/70 89/160/70 
f 80/156/71 84/161/71 90/162/71 87/157/71 
f 84/145/72 46/151/72 89/160/72 90/163/72 
f 35/59/73 38/62/73 88/164/73 85/153/73 
f 86/154/74 85/153/74 91/165/74 92/166/74 
f 88/158/75 87/157/75 93/167/75 94/168/75 
f 89/160/76 86/159/76 92/169/76 95/170/76 
f 87/157/77 90/162/77 96/171/77 93/167/77 
f 90/163/78 89/160/78 95/170/78 96/172/78 
f 85/153/79 88/164/79 94/173/79 91/165/79 
f 92/166/80 91/165/80 97/174/80 98/175/80 
f 94/168/81 93/167/81 99/176/81 100/177/81 
f 95/170/82 92/169/82 98/178/82 101/179/82 
f 93/180/83 96/181/83 102/182/83 99/183/83 
f 96/172/84 95/170/84 101/179/84 102/184/84 
f 91/165/85 94/173/85 100/185/85 97/174/85 
f 98/175/86 97/174/86 103/186/86 104/187/86 
f 100/177/87 99/176/87 105/188/87 106/189/87 
f 101/179/88 98/178/88 104/190/88 107/191/88 
f 99/183/89 102/182/89 108/192/89 105/193/89 
f 102/184/90 101/179/90 107/191/90 108/194/90 
f 97/174/91 100/185/91 106/195/91 103/186/91 
f 103/186/92 106/195/92 105/196/92 108/197/92 107/198/92 104/187/92 
f 19/34/19 109/199/19 110/200/19 20/35/19 
f 22/40/21 111/201/21 112/202/21 23/41/21 
f 24/42/93 113/203/93 111/204/93 22/43/93 
f 20/35/23 110/200/23 113/205/23 24/44/23 
f 109/199/19 26/46/19 25/45/19 110/200/19 
f 112/206/94 60/100/94 29/50/94 114/207/94 
f 111/201/21 31/97/21 60/96/21 112/202/21 
f 113/203/95 32/54/95 31/53/95 111/204/95 
f 110/200/23 25/45/23 32/57/23 113/205/23 
f 29/50/96 60/100/96 59/95/96 30/51/96 
f 39/64/97 41/67/97 44/70/97 40/65/97 
f 39/85/98 36/208/98 53/209/98 56/86/98 
f 56/86/99 53/209/99 27/52/99 30/51/99 
f 48/141/100 47/210/100 79/211/100 82/142/100 
f 82/142/101 79/211/101 37/66/101 40/65/101 
f 29/50/102 26/49/102 109/212/102 114/207/102 
s 8
f 5/6/5 7/9/7 10/12/10 6/7/6 
s off
f 6/7/103 10/12/103 17/30/103 15/27/103 
f 15/37/104 17/213/104 23/214/104 21/38/104 
f 23/41/105 112/202/105 115/215/105 116/216/105 
f 109/199/106 19/34/106 117/217/106 118/218/106 
f 21/219/107 23/41/107 116/216/107 119/220/107 
f 114/221/108 109/199/108 118/218/108 120/222/108 
f 112/223/109 114/224/109 120/225/109 115/226/109 
f 19/39/110 21/38/110 119/227/110 117/228/110 
f 116/216/111 115/215/111 121/229/111 122/230/111 
f 118/218/112 117/217/112 123/231/112 124/232/112 
f 119/220/113 116/216/113 122/230/113 125/233/113 
f 120/222/114 118/218/114 124/232/114 126/234/114 
f 115/235/115 120/236/115 126/237/115 121/238/115 
f 117/228/116 119/227/116 125/239/116 123/240/116 
f 122/230/117 121/229/117 127/241/117 128/242/117 
f 124/232/118 123/231/118 129/243/118 130/244/118 
f 125/233/119 122/230/119 128/242/119 131/245/119 
f 126/234/120 124/232/120 130/244/120 132/246/120 
f 121/238/121 126/237/121 132/247/121 127/248/121 
f 123/240/122 125/239/122 131/249/122 129/250/122 
f 128/242/123 127/241/123 133/251/123 134/252/123 
f 130/244/124 129/243/124 135/253/124 136/254/124 
f 131/245/125 128/242/125 134/252/125 137/255/125 
f 132/246/126 130/244/126 136/254/126 138/256/126 
f 127/248/127 132/247/127 138/257/127 133/258/127 
f 129/250/128 131/249/128 137/259/128 135/260/128 
f 134/252/129 133/251/129 139/261/129 140/262/129 
f 136/254/130 135/253/130 141/263/130 142/264/130 
f 137/255/131 134/252/131 140/262/131 143/265/131 
f 138/256/132 136/254/132 142/264/132 144/266/132 
f 133/258/133 138/257/133 144/267/133 139/268/133 
f 135/260/134 137/259/134 143/269/134 141/270/134 
f 139/271/135 144/272/135 142/273/135 141/274/135 143/275/135 140/276/135 
# 137 polygons

