# 3ds Max Wavefront OBJ Exporter v0.97b - (c)2007 guruware
# File Created: 18.11.2017 20:41:36

mtllib gora3.mtl

#
# object GeoSphere016
#

v  2.2699 149.1650 -16.4225
v  -9.3003 82.1788 -61.1321
v  -77.6894 82.1788 -2.5944
v  -106.2354 -86.1288 -50.9747
v  -120.9492 -82.1788 54.0503
v  -36.7634 -74.8093 145.8374
v  32.1654 82.1788 45.2103
v  96.8973 -82.1788 73.1835
v  141.9375 -76.1950 -55.5743
v  24.0519 -82.1788 -127.2338
v  76.9166 9.3823 -28.1735
v  15.2242 25.0920 -54.8142
v  58.5952 91.9260 -18.3937
# 13 vertices

vn -0.5152 0.5106 -0.6463
vn -0.8614 0.4583 -0.0635
vn -0.5970 -0.0866 -0.7488
vn -0.7165 0.3453 0.6605
vn -0.3977 0.5043 0.8087
vn 0.3341 0.6690 0.6416
vn -0.4605 -0.0010 0.9364
vn 0.8521 0.3735 0.2559
vn 0.9143 0.0714 -0.4396
vn 0.5813 0.5429 -0.6547
vn 0.5015 0.4736 -0.7716
vn -0.2237 0.2848 -0.9258
vn -0.2076 0.9740 0.0998
vn 0.5613 0.1113 -0.8737
vn 0.8850 0.1450 0.3351
vn 0.4884 0.1757 -0.9047
# 16 vertex normals

vt 0.0348 0.5215 0.0000
vt 0.0005 0.3546 0.0000
vt 0.1671 0.3566 0.0000
vt 0.6290 0.9843 0.0000
vt 0.8151 0.6237 0.0000
vt 0.9995 0.7121 0.0000
vt 0.3000 0.0058 0.0000
vt 0.4706 0.5781 0.0000
vt 0.5727 0.2170 0.0000
vt 0.8193 0.2846 0.0000
vt 0.4825 0.9856 0.0000
vt 0.2712 0.9804 0.0000
vt 0.4261 0.7941 0.0000
vt 0.0058 0.6098 0.0000
vt 0.2472 0.4600 0.0000
vt 0.3853 0.4102 0.0000
vt 0.2910 0.0388 0.0000
vt 0.5493 0.0005 0.0000
vt 0.8327 0.1679 0.0000
vt 0.7241 0.0005 0.0000
vt 0.9504 0.0447 0.0000
vt 0.8038 0.1275 0.0000
vt 0.5162 0.2264 0.0000
vt 0.4389 0.8219 0.0000
vt 0.5534 0.5392 0.0000
vt 0.5846 0.8214 0.0000
vt 0.6461 0.9437 0.0000
vt 0.8264 0.5653 0.0000
vt 0.9662 0.9515 0.0000
vt 0.7399 0.9073 0.0000
vt 0.8495 0.8350 0.0000
vt 0.4933 0.9881 0.0000
vt 0.5180 0.4089 0.0000
# 33 texture coords

g GeoSphere016
usemtl wire_214228153
s off
f 1/1/1 2/2/1 3/3/1 
f 2/4/2 4/5/2 5/6/2 
f 2/2/3 5/7/3 3/3/3 
f 3/8/4 5/9/4 6/10/4 
f 1/11/5 3/12/5 7/13/5 
f 3/12/6 6/14/6 8/15/6 
f 3/12/7 8/15/7 7/13/7 
f 7/16/8 8/17/8 9/18/8 
f 1/19/9 7/20/9 2/21/9 
f 7/16/10 9/18/10 10/22/10 11/23/10 
f 11/24/11 10/25/11 12/26/11 
f 2/27/12 12/26/12 10/25/12 4/28/12 
f 2/29/13 7/30/13 13/31/13 
f 12/26/14 2/27/14 13/32/14 
f 7/16/15 11/23/15 13/33/15 
f 11/24/16 12/26/16 13/32/16 
# 2 polygons - 14 triangles

