# 3ds Max Wavefront OBJ Exporter v0.97b - (c)2007 guruware
# File Created: 18.11.2017 20:40:54

mtllib gora2.mtl

#
# object GeoSphere005
#

v  -12.1521 121.2155 -0.0000
v  -44.8299 66.7807 -12.9247
v  -30.9023 66.7807 48.8789
v  -62.5592 -69.9906 -65.8470
v  -94.0819 -66.7807 8.2410
v  -46.0772 -60.7920 98.8398
v  42.6414 66.7807 -6.6120
v  54.1779 -66.7807 77.3568
v  108.6364 -61.9181 -9.5159
v  39.9040 -66.7807 -85.5978
v  41.4290 7.6243 -41.5960
v  -15.3990 20.3904 -38.1665
v  5.9604 74.7016 -43.7874
# 13 vertices

vn -0.8607 0.4707 0.1940
vn -0.8833 0.2643 -0.3873
vn -0.9074 0.3670 0.2045
vn -0.8574 0.2729 0.4363
vn 0.5367 0.4538 0.7113
vn 0.2165 0.3336 0.9175
vn 0.5269 0.4845 0.6983
vn 0.7723 0.3846 0.5056
vn 0.0707 0.1901 -0.9792
vn 0.6798 0.3630 -0.6373
vn 0.0620 0.5071 -0.8596
vn -0.1868 0.3755 -0.9078
vn -0.0161 0.9746 0.2236
vn -0.5292 0.1212 -0.8398
vn 0.7028 0.3514 -0.6186
vn -0.0764 -0.0729 -0.9944
# 16 vertex normals

vt 0.0005 0.5791 0.0000
vt 0.0204 0.3867 0.0000
vt 0.1936 0.4627 0.0000
vt 0.8139 0.4396 0.0000
vt 0.7638 0.0005 0.0000
vt 0.9995 0.0511 0.0000
vt 0.2195 0.0060 0.0000
vt 0.4802 0.1674 0.0000
vt 0.3377 0.3506 0.0000
vt 0.4662 0.5359 0.0000
vt 0.1913 0.5298 0.0000
vt 0.6044 0.9235 0.0000
vt 0.3047 0.9882 0.0000
vt 0.0060 0.9199 0.0000
vt 0.7874 0.7233 0.0000
vt 0.7664 0.4929 0.0000
vt 0.9695 0.6581 0.0000
vt 0.7659 0.9179 0.0000
vt 0.4874 0.5878 0.0000
vt 0.7633 0.4546 0.0000
vt 0.7647 0.7127 0.0000
vt 0.5116 0.2998 0.0000
vt 0.4655 0.0511 0.0000
vt 0.6879 0.3089 0.0000
vt 0.9749 0.6550 0.0000
vt 0.7719 0.4898 0.0000
vt 0.9293 0.4819 0.0000
vt 0.6443 0.4801 0.0000
vt 0.9187 0.8790 0.0000
# 29 texture coords

g GeoSphere005
usemtl wire_214228153
s off
f 1/1/1 2/2/1 3/3/1 
f 2/4/2 4/5/2 5/6/2 
f 2/2/3 5/7/3 3/3/3 
f 3/3/4 5/7/4 6/8/4 
f 1/9/5 3/10/5 7/11/5 
f 3/10/6 6/12/6 8/13/6 
f 3/10/7 8/13/7 7/11/7 
f 7/11/8 8/13/8 9/14/8 
f 1/15/9 7/16/9 2/17/9 
f 7/18/10 9/19/10 10/20/10 11/21/10 
f 11/22/11 10/23/11 12/24/11 
f 2/4/12 12/24/12 10/23/12 4/5/12 
f 2/25/13 7/26/13 13/27/13 
f 12/24/14 2/4/14 13/28/14 
f 7/18/15 11/21/15 13/29/15 
f 11/22/16 12/24/16 13/28/16 
# 2 polygons - 14 triangles

