# 3ds Max Wavefront OBJ Exporter v0.97b - (c)2007 guruware
# File Created: 18.11.2017 23:44:38

mtllib mrcannon.mtl

#
# object Cylinder013
#

v  5.2576 24.3943 -0.0000
v  3.2781 24.3943 -4.5363
v  7.3765 26.2756 -5.8968
v  11.8310 26.2756 -0.0000
v  -1.1699 24.3943 -5.6566
v  -2.6327 26.2756 -7.3532
v  -4.7369 24.3943 -2.5174
v  -10.6594 26.2756 -3.2725
v  -4.7369 24.3943 2.5174
v  -10.6594 26.2756 3.2725
v  -1.1699 24.3943 5.6566
v  -2.6327 26.2756 7.3532
v  3.2781 24.3943 4.5363
v  7.3765 26.2756 5.8968
v  7.3765 28.3080 -5.8968
v  11.8310 28.3080 -0.0000
v  -2.6327 28.3080 -7.3532
v  -10.6594 28.3080 -3.2725
v  -10.6594 28.3080 3.2725
v  -2.6327 28.3080 7.3532
v  7.3765 28.3080 5.8968
v  -14.2211 29.8682 3.2725
v  -14.2211 29.8682 -3.2725
v  -14.2211 30.9074 4.1309
v  -14.2211 30.9074 -4.1098
v  -14.2211 32.1855 -3.2725
v  -14.2211 32.1855 3.2725
v  -4.5324 32.6972 3.2725
v  -4.5324 32.6972 -3.2725
v  -14.2211 30.9074 6.5420
v  -14.2211 32.1855 5.1875
v  -14.2211 30.9074 -6.9820
v  -14.2211 29.8682 -5.5536
v  -14.2211 29.8682 5.1875
v  -2.6327 30.2316 -9.2478
v  7.3765 30.2316 -7.4141
v  7.3765 30.2316 7.4352
v  -2.6327 30.2316 9.2689
v  -2.6327 32.5974 7.3532
v  7.3765 32.5974 5.8968
v  7.3765 32.5974 -5.8968
v  -2.6327 32.5974 -7.3532
v  -14.2211 32.1855 -5.5536
v  8.9802 31.7058 3.7856
v  8.9802 31.5808 -3.4107
v  10.5526 30.0616 3.3401
v  10.5526 30.0616 -3.3191
v  11.1316 31.3959 1.9278
v  11.1316 31.3335 -1.6613
v  12.5534 29.7012 0.0397
v  11.9158 30.5758 1.7056
v  11.9158 30.5758 -1.6157
v  31.7298 31.4910 1.8698
v  31.6840 31.4400 -1.6067
v  31.6470 29.5847 0.0409
v  31.7684 30.5333 1.6546
v  31.7684 30.5333 -1.5625
v  4.9570 32.5228 0.1033
v  3.1697 32.5228 -4.2116
v  3.1697 33.6788 -4.2116
v  4.9570 33.6788 0.1033
v  -1.1452 32.5228 -5.9989
v  -1.1452 33.6788 -5.9989
v  -5.4601 32.5228 -4.2116
v  -5.4601 33.6788 -4.2116
v  -7.2474 32.5228 0.1033
v  -7.2474 33.6788 0.1033
v  -5.4601 32.5228 4.4183
v  -5.4601 33.6788 4.4183
v  -1.1452 32.5228 6.2056
v  -1.1452 33.6788 6.2056
v  3.1697 32.5228 4.4183
v  3.1697 33.6788 4.4183
v  2.7209 33.8679 -3.7627
v  4.3223 33.8679 0.1033
v  -1.1452 33.8679 -5.3641
v  -5.0113 33.8679 -3.7627
v  -6.6127 33.8679 0.1033
v  -5.0113 33.8679 3.9694
v  -1.1452 33.8679 5.5708
v  2.7209 33.8679 3.9694
v  1.6422 34.1591 -2.6840
v  2.7967 34.1591 0.1033
v  -1.1452 34.1591 -3.8386
v  -3.9326 34.1591 -2.6840
v  -5.0871 34.1591 0.1033
v  -3.9326 34.1591 2.8907
v  -1.1452 34.1591 4.0453
v  1.6422 34.1591 2.8907
v  4.5913 23.5432 0.0000
v  2.8626 23.5432 -3.9614
v  -1.0217 23.5432 -4.9397
v  -4.1366 23.5432 -2.1984
v  -4.1366 23.5432 2.1984
v  -1.0217 23.5432 4.9397
v  2.8626 23.5432 3.9614
v  2.7693 13.5264 0.0000
v  1.7267 13.5264 -2.3894
v  -0.6162 13.5264 -2.9795
v  -2.4951 13.5264 -1.3260
v  -2.4951 13.5264 1.3260
v  -0.6162 13.5264 2.9795
v  1.7267 13.5264 2.3894
# 103 vertices

vn 0.3191 -0.9474 -0.0258
vn 0.2747 -0.8794 -0.3889
vn 0.2874 -0.9149 -0.2834
vn 0.3188 -0.9478 -0.0110
vn -0.0122 -0.8153 -0.5789
vn -0.1347 -0.8280 -0.5443
vn -0.3115 -0.9437 -0.1113
vn -0.3312 -0.9356 -0.1227
vn -0.3261 -0.9283 0.1785
vn -0.3073 -0.9426 0.1304
vn -0.1495 -0.8313 0.5354
vn -0.1751 -0.8490 0.4985
vn 0.2642 -0.9038 0.3367
vn 0.3110 -0.8957 0.3179
vn 0.9010 -0.0000 -0.4339
vn 0.2225 -0.0000 -0.9749
vn -0.6235 -0.0000 -0.7818
vn -1.0000 0.0000 -0.0000
vn -0.6235 -0.0000 0.7818
vn 0.2225 -0.0000 0.9749
vn 0.9010 0.0000 0.4339
vn -0.4384 -0.8988 -0.0000
vn -0.0587 0.9983 -0.0000
vn -0.3323 -0.9320 0.1450
vn -0.2836 -0.9367 0.2054
vn -0.2216 -0.9347 0.2779
vn -0.3149 -0.9384 -0.1421
vn -0.2040 -0.9450 -0.2558
vn -0.2791 -0.9432 -0.1802
vn 0.1591 -0.7708 -0.6169
vn 0.1579 -0.7746 0.6124
vn 0.0000 1.0000 -0.0000
vn 0.0584 0.9983 0.0000
vn 0.0584 0.9983 -0.0000
vn -0.0488 0.9983 0.0318
vn -0.0504 0.9984 0.0267
vn -0.0556 0.9984 0.0100
vn -0.0493 0.9985 -0.0254
vn -0.0471 0.9984 -0.0313
vn -0.0549 0.9984 -0.0103
vn -0.0587 0.9983 0.0000
vn -0.1570 0.7793 -0.6066
vn -0.2602 -0.8121 0.5223
vn 0.5528 0.8333 -0.0039
vn 0.8030 0.4742 0.3609
vn 0.8889 0.3094 0.3377
vn 0.9099 -0.0014 0.4148
vn 0.8720 -0.2492 0.4214
vn 0.9156 0.2695 -0.2983
vn 0.7675 0.5509 -0.3278
vn 0.8869 -0.1765 -0.4269
vn 0.9186 0.0063 -0.3951
vn 0.1780 0.7013 -0.6903
vn 0.1769 0.7056 0.6862
vn -0.2315 -0.8220 -0.5203
vn -0.1919 0.7697 0.6088
vn 0.7903 -0.4641 0.3999
vn 0.7813 -0.4980 0.3762
vn 0.7838 -0.4932 -0.3774
vn 0.7928 -0.4590 -0.4010
vn 0.1422 0.9898 -0.0122
vn 0.8414 -0.4061 0.3566
vn 0.6677 0.5811 -0.4652
vn 0.7434 0.4493 0.4956
vn 0.8534 -0.3832 -0.3533
vn -0.0055 0.9999 -0.0114
vn -0.0035 -0.9303 0.3668
vn 0.0043 -0.0739 -0.9973
vn 0.0045 -0.3258 0.9454
vn -0.0034 -0.9295 -0.3688
vn 1.0000 0.0024 -0.0031
vn 1.0000 0.0000 -0.0000
vn 0.8102 0.0000 -0.5862
vn -0.0000 0.0000 -1.0000
vn -0.8102 0.0000 -0.5862
vn -1.0000 0.0000 0.0000
vn -0.8102 0.0000 0.5862
vn 0.0000 0.0000 1.0000
vn 0.8102 0.0000 0.5862
vn 0.0000 -1.0000 -0.0000
vn 0.3138 0.9459 -0.0829
vn 0.1332 0.9696 -0.2050
vn -0.1332 0.9696 -0.2050
vn -0.3138 0.9459 -0.0829
vn -0.3138 0.9459 0.0829
vn -0.1332 0.9696 0.2050
vn 0.1332 0.9696 0.2050
vn 0.3138 0.9459 0.0829
vn 0.2076 0.9767 -0.0548
vn 0.0869 0.9872 -0.1338
vn -0.0869 0.9872 -0.1338
vn -0.2076 0.9767 -0.0548
vn -0.2076 0.9767 0.0548
vn -0.0869 0.9872 0.1338
vn 0.0869 0.9872 0.1338
vn 0.2076 0.9767 0.0548
vn 0.0000 1.0000 0.0000
vn 0.7976 -0.5608 -0.2219
vn 0.2539 -0.7228 -0.6427
vn -0.6254 -0.6354 -0.4530
vn -0.8448 -0.5351 0.0000
vn -0.6254 -0.6354 0.4530
vn 0.2539 -0.7228 0.6427
vn 0.7976 -0.5608 0.2219
vn 0.9517 -0.1555 -0.2648
vn 0.3571 -0.2362 -0.9037
vn -0.7954 -0.1878 -0.5762
vn -0.9893 -0.1456 0.0000
vn -0.7954 -0.1878 0.5762
vn 0.3571 -0.2362 0.9037
vn 0.9517 -0.1555 0.2648
# 111 vertex normals

vt 0.7500 0.0000 1.0000
vt 0.8929 0.0000 1.0000
vt 0.8929 1.0000 1.0000
vt 0.7500 1.0000 1.0000
vt 1.0357 0.0000 1.0000
vt 1.0357 1.0000 1.0000
vt 0.0357 0.0000 1.0000
vt 0.1786 0.0000 1.0000
vt 0.1786 1.0000 1.0000
vt 0.0357 1.0000 1.0000
vt 0.3214 0.0000 1.0000
vt 0.3214 1.0000 1.0000
vt 0.4643 0.0000 1.0000
vt 0.4643 1.0000 1.0000
vt 0.6071 0.0000 1.0000
vt 0.6071 1.0000 1.0000
vt 0.6513 1.0000 1.0000
vt 0.3067 1.0000 1.0000
vt 0.4842 1.0000 1.0000
vt 0.8435 0.4485 1.0000
vt 0.9716 0.4485 1.0000
vt 0.7154 1.0000 1.0000
vt 0.8750 0.0000 1.0000
vt 0.8750 1.0000 1.0000
vt 1.0000 0.0000 1.0000
vt 1.0000 1.0000 1.0000
vt 0.0000 0.0000 1.0000
vt 0.1250 0.0000 1.0000
vt 0.1250 1.0000 1.0000
vt 0.0000 1.0000 1.0000
vt 0.2500 0.0000 1.0000
vt 0.2500 1.0000 1.0000
vt 0.3750 0.0000 1.0000
vt 0.3750 1.0000 1.0000
vt 0.5000 0.0000 1.0000
vt 0.5000 1.0000 1.0000
vt 0.6250 0.0000 1.0000
vt 0.6250 1.0000 1.0000
vt 0.8536 0.8536 -0.2500
vt 1.0000 0.5000 -0.2500
vt 0.8536 0.1464 -0.2500
vt 0.5000 0.0000 -0.2500
vt 0.1464 0.1464 -0.2500
vt 0.0000 0.5000 -0.2500
vt 0.1464 0.8536 -0.2500
vt 0.5000 1.0000 -0.2500
# 46 texture coords

g Cylinder013
usemtl Material__2
s 8
f 1/1/1 2/2/2 3/3/3 4/4/4 
f 2/2/2 5/5/5 6/6/6 3/3/3 
f 5/7/5 7/8/7 8/9/8 6/10/6 
f 7/8/7 9/11/9 10/12/10 8/9/8 
f 9/11/9 11/13/11 12/14/12 10/12/10 
f 11/13/11 13/15/13 14/16/14 12/14/12 
f 13/15/13 1/1/1 4/4/4 14/16/14 
s off
f 4/4/15 3/3/15 15/3/15 16/4/15 
f 3/3/16 6/6/16 17/6/16 15/3/16 
f 6/10/17 8/9/17 18/9/17 17/10/17 
f 8/9/18 10/12/18 19/12/18 18/9/18 
f 10/12/19 12/14/19 20/14/19 19/12/19 
f 12/14/20 14/16/20 21/16/20 20/14/20 
f 14/16/21 4/4/21 16/4/21 21/16/21 
f 18/9/22 19/12/22 22/12/22 23/9/22 
f 23/9/18 22/12/18 24/12/18 25/9/18 
f 26/9/23 27/12/23 28/12/23 29/9/23 
f 27/12/18 24/12/18 30/12/18 31/12/18 
f 23/9/18 25/9/18 32/9/18 33/9/18 
s 1
f 34/9/24 22/14/22 19/6/25 20/9/26 
f 23/12/22 33/9/27 17/3/28 18/4/29 
s off
f 15/3/30 17/6/30 35/6/30 36/3/30 
f 20/14/31 21/16/31 37/16/31 38/14/31 
s 1
f 39/9/32 40/6/32 41/12/32 42/9/32 
s 2
f 39/9/33 42/9/33 29/9/34 28/12/33 
s 4
f 39/9/35 28/12/36 27/12/23 31/12/37 
f 29/9/38 42/9/39 43/12/40 26/16/41 
s off
f 43/9/42 42/9/42 35/17/42 32/9/42 
f 34/12/43 20/9/43 38/18/43 30/12/43 
f 41/12/44 40/6/44 44/6/44 45/12/44 
s 2
f 44/16/45 40/6/46 37/19/47 46/20/48 
s 4
f 41/12/49 45/3/50 47/21/51 36/22/52 
s off
f 24/12/18 27/12/18 26/9/18 25/9/18 
f 24/12/18 22/12/18 34/12/18 30/12/18 
f 25/9/18 26/9/18 43/9/18 32/9/18 
f 35/6/53 42/6/53 41/3/53 36/3/53 
f 37/16/54 40/16/54 39/14/54 38/14/54 
f 35/17/55 17/6/55 33/9/55 32/9/55 
f 38/18/56 39/14/56 31/12/56 30/12/56 
s 2
f 37/19/47 21/10/57 16/5/58 46/20/48 
s 4
f 47/21/51 16/5/59 15/6/60 36/22/52 
s off
f 45/12/61 44/6/61 48/6/61 49/12/61 
f 46/20/62 16/5/62 50/5/62 51/20/62 
f 47/21/63 45/3/63 49/3/63 52/21/63 
f 44/16/64 46/20/64 51/20/64 48/16/64 
f 16/5/65 47/21/65 52/21/65 50/5/65 
f 49/12/66 48/6/66 53/6/66 54/12/66 
f 51/20/67 50/5/67 55/5/67 56/20/67 
f 52/21/68 49/3/68 54/3/68 57/21/68 
f 48/16/69 51/20/69 56/20/69 53/16/69 
f 50/5/70 52/21/70 57/21/70 55/5/70 
f 53/6/71 56/20/71 55/5/71 57/21/71 54/3/71 
s 8
f 58/1/72 59/23/73 60/24/73 61/4/72 
f 59/23/73 62/25/74 63/26/74 60/24/73 
f 62/27/74 64/28/75 65/29/75 63/30/74 
f 64/28/75 66/31/76 67/32/76 65/29/75 
f 66/31/76 68/33/77 69/34/77 67/32/76 
f 68/33/77 70/35/78 71/36/78 69/34/77 
f 70/35/78 72/37/79 73/38/79 71/36/78 
f 72/37/79 58/1/72 61/4/72 73/38/79 
s 1
f 72/39/80 70/40/80 68/41/80 66/42/80 64/43/80 62/44/80 59/45/80 58/46/80 
s off
f 61/4/81 60/24/81 74/24/81 75/4/81 
f 60/24/82 63/26/82 76/26/82 74/24/82 
f 63/30/83 65/29/83 77/29/83 76/30/83 
f 65/29/84 67/32/84 78/32/84 77/29/84 
f 67/32/85 69/34/85 79/34/85 78/32/85 
f 69/34/86 71/36/86 80/36/86 79/34/86 
f 71/36/87 73/38/87 81/38/87 80/36/87 
f 73/38/88 61/4/88 75/4/88 81/38/88 
f 75/4/89 74/24/89 82/24/89 83/4/89 
f 74/24/90 76/26/90 84/26/90 82/24/90 
f 76/30/91 77/29/91 85/29/91 84/30/91 
f 77/29/92 78/32/92 86/32/92 85/29/92 
f 78/32/93 79/34/93 87/34/93 86/32/93 
f 79/34/94 80/36/94 88/36/94 87/34/94 
f 80/36/95 81/38/95 89/38/95 88/36/95 
f 81/38/96 75/4/96 83/4/96 89/38/96 
f 82/24/97 84/26/97 85/29/97 86/32/97 87/34/97 88/36/97 89/38/97 83/4/97 
f 2/2/98 1/1/98 90/1/98 91/2/98 
f 5/5/99 2/2/99 91/2/99 92/5/99 
f 7/8/100 5/7/100 92/7/100 93/8/100 
f 9/11/101 7/8/101 93/8/101 94/11/101 
f 11/13/102 9/11/102 94/11/102 95/13/102 
f 13/15/103 11/13/103 95/13/103 96/15/103 
f 1/1/104 13/15/104 96/15/104 90/1/104 
f 91/2/105 90/1/105 97/1/105 98/2/105 
f 92/5/106 91/2/106 98/2/106 99/5/106 
f 93/8/107 92/7/107 99/7/107 100/8/107 
f 94/11/108 93/8/108 100/8/108 101/11/108 
f 95/13/109 94/11/109 101/11/109 102/13/109 
f 96/15/110 95/13/110 102/13/110 103/15/110 
f 90/1/111 96/15/111 103/15/111 97/1/111 
# 92 polygons

