# 3ds Max Wavefront OBJ Exporter v0.97b - (c)2007 guruware
# File Created: 18.11.2017 21:00:53

mtllib rocket.mtl

#
# object Cylinder001
#

v  -4.2476 -5.9359 2.5718
v  -4.2476 -5.8620 0.4487
v  27.1931 -9.1609 0.5804
v  27.1931 -9.2613 3.4636
v  -4.2476 -5.7419 -2.9976
v  -4.2476 -1.6666 -6.7987
v  27.1930 -3.4636 -9.2613
v  27.1931 -8.9979 -4.0996
v  -4.2476 3.9029 -6.6047
v  27.1930 4.0996 -8.9979
v  -4.2476 7.7039 -2.5293
v  27.1930 9.2613 -3.4636
v  -4.2476 7.6286 -0.3668
v  27.1930 9.1590 -0.5270
v  -4.2476 7.5100 3.0401
v  -4.2476 3.4346 6.8412
v  27.1930 3.4636 9.2613
v  27.1930 8.9979 4.0996
v  -4.2476 -2.1349 6.6472
v  27.1931 -4.0996 8.9979
v  61.9465 -7.6952 2.9806
v  61.9465 -7.6089 0.5046
v  64.3618 -8.0680 0.5112
v  64.3618 -8.1565 3.0504
v  61.9465 -7.4690 -3.5143
v  61.9465 -2.7164 -7.9470
v  64.3618 -3.0504 -8.1565
v  64.3618 -7.9245 -3.6105
v  61.9465 3.7785 -7.7208
v  64.3618 3.6105 -7.9245
v  61.9465 8.2112 -2.9682
v  64.3618 8.1565 -3.0505
v  61.9465 8.1234 -0.4464
v  64.3618 8.0664 -0.4641
v  61.9465 7.9850 3.5267
v  61.9465 3.2324 7.9594
v  64.3618 3.0505 8.1565
v  64.3618 7.9245 3.6105
v  61.9465 -3.2625 7.7332
v  64.3618 -3.6105 7.9245
v  67.1983 -5.6977 0.3610
v  67.1983 -5.7601 2.1542
v  67.1983 -2.1542 -5.7601
v  67.1983 -5.5963 -2.5498
v  67.1983 2.5498 -5.5963
v  67.1983 5.7602 -2.1542
v  67.1983 5.6965 -0.3278
v  67.1983 2.1543 5.7601
v  67.1983 5.5963 2.5498
v  67.1983 -2.5497 5.5963
v  69.0637 -3.0775 0.1950
v  69.0637 -3.1112 1.1636
v  69.0637 -1.1636 -3.1112
v  69.0637 -3.0227 -1.3772
v  69.0637 1.3772 -3.0227
v  69.0637 3.1113 -1.1636
v  69.0637 3.0769 -0.1770
v  69.0637 1.1636 3.1112
v  69.0637 3.0228 1.3772
v  69.0637 -1.3772 3.0227
v  69.0637 3.0594 0.3246
v  69.0637 -3.0633 -0.2131
v  -4.2476 -5.8308 -0.4459
v  -24.0238 -10.9503 -0.7870
v  -24.0238 -10.7936 -5.2841
v  -24.0238 -3.6115 -11.9828
v  -24.0238 6.2038 -11.6410
v  -24.0238 12.9025 -4.4588
v  -4.2476 7.5903 0.7327
v  -24.0238 12.7022 1.2900
v  -24.0238 12.5606 5.3564
v  -24.0238 5.3785 12.0551
v  -24.0238 -4.4368 11.7133
v  -24.0238 -11.1355 4.5311
v  -24.0238 12.7697 -0.6477
v  -24.0238 -11.0052 0.7894
v  27.1930 9.1070 0.9661
v  61.9465 8.0787 0.8359
v  64.3618 8.0206 0.8509
v  67.1983 5.6642 0.6009
v  49.9933 -8.2786 -3.8033
v  61.9465 -7.5726 -0.5385
v  49.9933 -8.3906 -0.5870
v  49.9933 -3.1419 -8.5942
v  49.9933 3.8780 -8.3497
v  49.9933 8.6689 -3.2131
v  49.9933 8.5740 -0.4874
v  49.9933 3.2877 8.5977
v  49.9933 8.4244 3.8068
v  49.9933 -3.7321 8.3532
v  49.9933 -8.5231 3.2166
v  49.9933 8.5257 0.8985
v  27.1931 -9.1186 -0.6343
v  18.0020 21.6910 -0.5270
v  18.0020 21.6390 0.9661
v  64.3618 -8.0308 -0.5587
v  67.1983 -5.6714 -0.3945
v  49.9933 -8.4299 0.5405
v  19.8650 -22.2461 0.5405
v  19.8650 -22.2068 -0.5870
# 100 vertices

vn -0.1531 -0.9243 0.3497
vn -0.1473 -0.9885 -0.0344
vn -0.0833 -0.9959 -0.0347
vn -0.0514 -0.9361 0.3481
vn -0.1528 -0.8977 -0.4133
vn -0.1313 -0.3385 -0.9318
vn -0.0423 -0.3544 -0.9341
vn -0.0513 -0.9096 -0.4123
vn -0.1013 0.4208 -0.9015
vn -0.0293 0.4101 -0.9116
vn -0.0804 0.9349 -0.3457
vn -0.0200 0.9358 -0.3521
vn -0.0687 0.9970 0.0347
vn -0.0337 0.9988 0.0348
vn -0.0808 0.9086 0.4097
vn -0.1021 0.3571 0.9285
vn -0.0296 0.3456 0.9379
vn -0.0201 0.9090 0.4164
vn -0.1321 -0.4026 0.9058
vn -0.0426 -0.4185 0.9072
vn -0.2606 -0.9649 -0.0336
vn -0.2189 -0.6655 -0.7136
vn -0.1156 0.0346 -0.9927
vn -0.0095 0.7313 -0.6820
vn 0.0338 0.9988 0.0348
vn -0.0118 0.6820 0.7312
vn -0.1188 -0.0346 0.9923
vn -0.2210 -0.7132 0.6652
vn 0.7642 -0.6446 -0.0225
vn 0.7642 -0.4399 -0.4717
vn 0.7642 0.0225 -0.6446
vn 0.7642 0.4717 -0.4399
vn 0.7642 0.6446 0.0225
vn 0.7642 0.4399 0.4717
vn 0.7642 -0.0224 0.6446
vn 0.7642 -0.4717 0.4399
vn 0.8937 -0.4485 -0.0156
vn 0.8937 -0.3061 -0.3282
vn 0.8937 0.0156 -0.4485
vn 0.8937 0.3282 -0.3061
vn 0.8937 0.4485 0.0156
vn 0.8937 0.3061 0.3282
vn 0.8937 -0.0156 0.4485
vn 0.8937 -0.3282 0.3061
vn 1.0000 0.0000 -0.0000
vn 0.3459 -0.9377 -0.0327
vn 0.3453 -0.6401 -0.6863
vn 0.3450 0.0327 -0.9380
vn 0.3453 0.6863 -0.6401
vn 0.3459 0.9377 0.0327
vn 0.3466 0.6398 0.6860
vn 0.3468 -0.0326 0.9374
vn 0.3466 -0.6860 0.6398
vn -1.0000 -0.0000 0.0000
vn 0.7642 0.6446 0.0224
vn 0.0744 -0.9078 -0.4128
vn 0.1013 -0.9044 -0.4144
vn 0.0970 -0.9947 -0.0346
vn 0.0798 -0.9962 -0.0347
vn 0.0674 -0.3512 -0.9339
vn 0.0894 -0.3441 -0.9347
vn 0.0575 0.4123 -0.9093
vn 0.0727 0.4181 -0.9055
vn 0.0504 0.9352 -0.3506
vn 0.0611 0.9356 -0.3477
vn 0.0477 0.9983 0.0348
vn 0.0533 0.9980 0.0348
vn 0.0577 0.3480 0.9357
vn 0.0731 0.3541 0.9323
vn 0.0612 0.9092 0.4119
vn 0.0505 0.9085 0.4148
vn 0.0677 -0.4153 0.9072
vn 0.0898 -0.4083 0.9084
vn 0.0746 -0.9343 0.3486
vn 0.1015 -0.9311 0.3504
vn 0.5034 0.8636 0.0301
vn -0.8886 -0.4584 -0.0160
vn 0.0043 0.0022 1.0000
vn 0.0025 0.0013 -1.0000
vn 0.5459 -0.8373 -0.0292
vn -0.9304 0.3664 0.0128
vn 0.0027 -0.0041 1.0000
vn 0.0032 -0.0049 -1.0000
# 83 vertex normals

vt 0.1211 0.1807 0.0000
vt 0.1468 0.1815 0.0000
vt 0.1500 0.4450 0.0000
vt 0.1185 0.4451 0.0000
vt 0.5042 0.1734 0.0000
vt 0.5696 0.1794 0.0000
vt 0.5274 0.4364 0.0000
vt 0.4430 0.4243 0.0000
vt 0.6353 0.1917 0.0000
vt 0.6105 0.4466 0.0000
vt 0.8358 0.1799 0.0000
vt 0.9017 0.1749 0.0000
vt 0.8993 0.4343 0.0000
vt 0.8136 0.4346 0.0000
vt 0.9273 0.1753 0.0000
vt 0.9319 0.4338 0.0000
vt 0.2684 0.1848 0.0000
vt 0.3346 0.1814 0.0000
vt 0.3444 0.4417 0.0000
vt 0.2598 0.4416 0.0000
vt 0.4007 0.1832 0.0000
vt 0.4303 0.4408 0.0000
vt 0.0543 0.1859 0.0000
vt 0.0359 0.4425 0.0000
vt 0.1130 0.7120 0.0000
vt 0.1398 0.7139 0.0000
vt 0.1379 0.7325 0.0000
vt 0.1133 0.7301 0.0000
vt 0.4227 0.7021 0.0000
vt 0.4961 0.7054 0.0000
vt 0.4917 0.7234 0.0000
vt 0.4190 0.7240 0.0000
vt 0.5664 0.7190 0.0000
vt 0.5610 0.7369 0.0000
vt 0.8310 0.7142 0.0000
vt 0.9031 0.7063 0.0000
vt 0.9022 0.7239 0.0000
vt 0.8307 0.7354 0.0000
vt 0.9302 0.7081 0.0000
vt 0.9285 0.7265 0.0000
vt 0.2708 0.7201 0.0000
vt 0.3430 0.7135 0.0000
vt 0.3455 0.7316 0.0000
vt 0.2736 0.7389 0.0000
vt 0.4145 0.7193 0.0000
vt 0.4162 0.7405 0.0000
vt 0.0417 0.7158 0.0000
vt 0.0437 0.7345 0.0000
vt 0.1345 0.7664 0.0000
vt 0.1144 0.7626 0.0000
vt 0.4891 0.7574 0.0000
vt 0.4331 0.7629 0.0000
vt 0.5422 0.7693 0.0000
vt 0.9046 0.7579 0.0000
vt 0.8501 0.7714 0.0000
vt 0.9257 0.7613 0.0000
vt 0.3455 0.7657 0.0000
vt 0.2907 0.7758 0.0000
vt 0.3994 0.7742 0.0000
vt 0.0599 0.7720 0.0000
vt 0.9569 0.8583 0.0000
vt 0.9491 0.8784 0.0000
vt 0.9168 0.8685 0.0000
vt 0.9210 0.8585 0.0000
vt 0.9354 0.9101 0.0000
vt 0.8842 0.9314 0.0000
vt 0.8837 0.8956 0.0000
vt 0.9100 0.8849 0.0000
vt 0.8326 0.9101 0.0000
vt 0.8577 0.8844 0.0000
vt 0.8114 0.8583 0.0000
vt 0.8473 0.8581 0.0000
vt 0.8193 0.8378 0.0000
vt 0.8515 0.8479 0.0000
vt 0.8328 0.8065 0.0000
vt 0.8840 0.7852 0.0000
vt 0.8845 0.8210 0.0000
vt 0.8583 0.8317 0.0000
vt 0.9357 0.8065 0.0000
vt 0.9106 0.8322 0.0000
vt 0.8537 0.8426 0.0000
vt 0.9151 0.8728 0.0000
vt 0.1878 0.1829 0.0000
vt 0.1576 0.1819 0.0000
vt 0.1732 0.0059 0.0000
vt 0.2263 0.0100 0.0000
vt 0.4852 0.0005 0.0000
vt 0.5992 0.0043 0.0000
vt 0.7027 0.0345 0.0000
vt 0.7852 0.0202 0.0000
vt 0.8888 0.0005 0.0000
vt 0.9670 0.1757 0.0000
vt 0.9402 0.1754 0.0000
vt 0.9526 0.0039 0.0000
vt 0.9995 0.0061 0.0000
vt 0.2255 0.0197 0.0000
vt 0.3326 0.0057 0.0000
vt 0.4399 0.0172 0.0000
vt 0.0005 0.0199 0.0000
vt 0.1133 0.0005 0.0000
vt 0.6909 0.9315 0.0000
vt 0.5874 0.8886 0.0000
vt 0.5446 0.7851 0.0000
vt 0.5874 0.6816 0.0000
vt 0.6303 0.6638 0.0000
vt 0.6507 0.6554 0.0000
vt 0.6909 0.6387 0.0000
vt 0.7944 0.6816 0.0000
vt 0.8373 0.7851 0.0000
vt 0.7944 0.8886 0.0000
vt 0.7470 0.9082 0.0000
vt 0.7304 0.9151 0.0000
vt 0.9851 0.4327 0.0000
vt 0.9492 0.4332 0.0000
vt 0.9445 0.7090 0.0000
vt 0.9750 0.7113 0.0000
vt 0.9743 0.7310 0.0000
vt 0.9430 0.7281 0.0000
vt 0.9589 0.7656 0.0000
vt 0.9364 0.7628 0.0000
vt 0.8234 0.8277 0.0000
vt 0.9303 0.0029 0.0000
vt 0.1932 0.6239 0.0000
vt 0.1842 0.7181 0.0000
vt 0.1512 0.7149 0.0000
vt 0.1574 0.6220 0.0000
vt 0.5058 0.6128 0.0000
vt 0.4262 0.6052 0.0000
vt 0.5833 0.6249 0.0000
vt 0.9020 0.6140 0.0000
vt 0.8217 0.6172 0.0000
vt 0.9326 0.6144 0.0000
vt 0.3442 0.6210 0.0000
vt 0.2646 0.6236 0.0000
vt 0.4239 0.6234 0.0000
vt 0.1158 0.6196 0.0000
vt 0.0379 0.6206 0.0000
vt 0.9811 0.6155 0.0000
vt 0.9481 0.6149 0.0000
vt 0.2035 0.4447 0.0000
vt 0.1640 0.4444 0.0000
vt 0.2337 0.9412 0.0000
vt 0.2340 0.9444 0.0000
vt 0.1735 0.9502 0.0000
vt 0.1732 0.9467 0.0000
vt 0.2860 0.8271 0.0000
vt 0.2888 0.8192 0.0000
vt 0.3622 0.8484 0.0000
vt 0.3594 0.8562 0.0000
vt 0.7835 0.6141 0.0000
vt 0.7065 0.4729 0.0000
vt 0.7827 0.5150 0.0000
vt 0.1270 0.9519 0.0000
vt 0.0675 0.8819 0.0000
vt 0.2296 0.9319 0.0000
vt 0.1830 0.7380 0.0000
vt 0.1493 0.7340 0.0000
vt 0.1671 0.7714 0.0000
vt 0.1429 0.7677 0.0000
vt 0.9458 0.8866 0.0000
vt 0.1546 0.0044 0.0000
vt 0.1449 0.6211 0.0000
vt 0.7135 0.2565 0.0000
vt 0.7099 0.2542 0.0000
vt 0.7602 0.1718 0.0000
vt 0.7638 0.1741 0.0000
vt 0.5080 0.8627 0.0000
vt 0.5116 0.8692 0.0000
vt 0.4283 0.9117 0.0000
vt 0.4244 0.9046 0.0000
vt 0.6409 0.3277 0.0000
vt 0.7523 0.2800 0.0000
vt 0.6387 0.4659 0.0000
vt 0.6719 0.2880 0.0000
vt 0.7706 0.1263 0.0000
vt 0.7780 0.2314 0.0000
# 176 texture coords

g Cylinder001
usemtl Material__25
s 8
f 1/1/1 2/2/2 3/3/3 4/4/4 
f 5/5/5 6/6/6 7/7/7 8/8/8 
f 6/6/6 9/9/9 10/10/10 7/7/7 
f 9/11/9 11/12/11 12/13/12 10/14/10 
f 11/12/11 13/15/13 14/16/14 12/13/12 
f 15/17/15 16/18/16 17/19/17 18/20/18 
f 16/18/16 19/21/19 20/22/20 17/19/17 
f 19/23/19 1/1/1 4/4/4 20/24/20 
s off
f 21/25/21 22/26/21 23/27/21 24/28/21 
f 25/29/22 26/30/22 27/31/22 28/32/22 
f 26/30/23 29/33/23 30/34/23 27/31/23 
f 29/35/24 31/36/24 32/37/24 30/38/24 
f 31/36/25 33/39/25 34/40/25 32/37/25 
f 35/41/26 36/42/26 37/43/26 38/44/26 
f 36/42/27 39/45/27 40/46/27 37/43/27 
f 39/47/28 21/25/28 24/28/28 40/48/28 
f 24/28/29 23/27/29 41/49/29 42/50/29 
f 28/32/30 27/31/30 43/51/30 44/52/30 
f 27/31/31 30/34/31 45/53/31 43/51/31 
f 30/38/32 32/37/32 46/54/32 45/55/32 
f 32/37/33 34/40/33 47/56/33 46/54/33 
f 38/44/34 37/43/34 48/57/34 49/58/34 
f 37/43/35 40/46/35 50/59/35 48/57/35 
f 40/48/36 24/28/36 42/50/36 50/60/36 
f 42/61/37 41/62/37 51/63/37 52/64/37 
f 44/65/38 43/66/38 53/67/38 54/68/38 
f 43/66/39 45/69/39 55/70/39 53/67/39 
f 45/69/40 46/71/40 56/72/40 55/70/40 
f 46/71/41 47/73/41 57/74/41 56/72/41 
f 49/75/42 48/76/42 58/77/42 59/78/42 
f 48/76/43 50/79/43 60/80/43 58/77/43 
f 50/79/44 42/61/44 52/64/44 60/80/44 
f 54/68/45 53/67/45 55/70/45 56/72/45 57/74/45 61/81/45 59/78/45 58/77/45 60/80/45 52/64/45 51/63/45 62/82/45 
f 5/83/46 63/84/46 64/85/46 65/86/46 
f 6/6/47 5/5/47 65/87/47 66/88/47 
f 9/9/48 6/6/48 66/88/48 67/89/48 
f 11/12/49 9/11/49 67/90/49 68/91/49 
f 15/92/50 69/93/50 70/94/50 71/95/50 
f 16/18/51 15/17/51 71/96/51 72/97/51 
f 19/21/52 16/18/52 72/97/52 73/98/52 
f 1/1/53 19/23/53 73/99/53 74/100/53 
f 74/101/54 73/102/54 72/103/54 71/104/54 70/105/54 75/106/54 68/107/54 67/108/54 66/109/54 65/110/54 64/111/54 76/112/54 
s 8
f 69/93/13 15/92/15 18/113/18 77/114/14 
s off
f 78/115/25 35/116/25 38/117/25 79/118/25 
f 79/118/55 38/117/55 49/119/55 80/120/55 
f 80/121/41 49/75/41 59/78/41 61/81/41 
f 69/93/50 13/15/50 75/122/50 70/94/50 
s 8
f 13/15/13 69/93/13 77/114/14 14/16/14 
s off
f 33/39/25 78/115/25 79/118/25 34/40/25 
f 34/40/33 79/118/33 80/120/33 47/56/33 
f 47/73/41 80/121/41 61/81/41 57/74/41 
f 13/15/50 11/12/50 68/91/50 75/122/50 
s 8
f 81/123/56 25/124/57 82/125/58 83/126/59 
f 84/127/60 26/30/61 25/29/57 81/128/56 
f 85/129/62 29/33/63 26/30/61 84/127/60 
f 86/130/64 31/36/65 29/35/63 85/131/62 
f 87/132/66 33/39/67 31/36/65 86/130/64 
f 88/133/68 36/42/69 35/41/70 89/134/71 
f 90/135/72 39/45/73 36/42/69 88/133/68 
f 91/136/74 21/25/75 39/47/73 90/137/72 
f 89/138/71 35/116/70 78/115/67 92/139/66 
f 92/139/66 78/115/67 33/39/67 87/132/66 
f 8/140/8 81/123/56 83/126/59 93/141/3 
f 7/7/7 84/127/60 81/128/56 8/8/8 
f 10/10/10 85/129/62 84/127/60 7/7/7 
f 12/13/12 86/130/64 85/131/62 10/14/10 
f 14/16/14 87/132/66 86/130/64 12/13/12 
f 17/19/17 88/133/68 89/134/71 18/20/18 
f 20/22/20 90/135/72 88/133/68 17/19/17 
f 4/4/4 91/136/74 90/137/72 20/24/20 
f 18/113/18 89/138/71 92/139/66 77/114/14 
s off
f 92/142/76 87/143/76 94/144/76 95/145/76 
s 1
f 95/146/77 94/147/77 14/148/77 77/149/77 
s off
f 92/150/78 95/151/78 77/152/78 
f 14/153/79 94/154/79 87/155/79 
s 8
f 63/84/2 5/83/5 8/140/8 93/141/3 
s off
f 82/125/21 25/124/21 28/156/21 96/157/21 
f 96/157/29 28/156/29 44/158/29 97/159/29 
f 97/160/37 44/65/37 54/68/37 62/82/37 
f 63/84/46 2/2/46 76/161/46 64/85/46 
s 8
f 82/125/58 22/26/58 98/162/59 83/126/59 
f 2/2/2 63/84/2 93/141/3 3/3/3 
s off
f 22/26/21 82/125/21 96/157/21 23/27/21 
f 23/27/29 96/157/29 97/159/29 41/49/29 
f 41/62/37 97/160/37 62/82/37 51/63/37 
f 2/2/46 1/1/46 74/100/46 76/161/46 
s 8
f 22/26/58 21/25/75 91/136/74 98/162/59 
f 98/162/59 91/136/74 4/4/4 3/3/3 
s off
f 83/163/80 98/164/80 99/165/80 100/166/80 
s 1
f 100/167/81 99/168/81 3/169/81 93/170/81 
s off
f 3/171/82 99/172/82 98/173/82 
f 83/174/83 100/175/83 93/176/83 
# 88 polygons - 4 triangles

